<svg xmlns="http://www.w3.org/2000/svg" xml:space="preserve" id="图层_1" x="0" y="0" version="1.1" viewBox="0 0 64 64"><style>.st3{fill:#cae7ff}.st5{fill:#fff}</style><path d="M54 11.1H10.5c-1.4 0-2.5 1.1-2.5 2.5v27.9c0 1.4 1.1 2.5 2.5 2.5h3.6v7.9l9.1-7.9H54c1.4 0 2.5-1.1 2.5-2.5V13.6c0-1.4-1.1-2.5-2.5-2.5" style="fill:#006bc2"/><path d="M13.6 52.9v-8.4h-3.2c-1.6 0-3-1.3-3-3V13.6c0-1.6 1.3-3 3-3h43.5c1.6 0 3 1.3 3 3v27.9c0 1.6-1.3 3-3 3H23.3zm-3.1-41.4c-1.1 0-2.1.9-2.1 2.1v27.9c0 1.1.9 2.1 2.1 2.1h4.1v7.3l8.5-7.3H54c1.1 0 2.1-.9 2.1-2.1V13.6c0-1.1-.9-2.1-2.1-2.1z" class="st3"/><path d="M30.5 15.9h5.3v13.4h-5.3z" class="st5"/><path d="M36.2 29.8H30V15.5h6.2zm-5.3-.9h4.4V16.4h-4.4z" class="st3"/><path d="M30.5 32.7H36v5.5h-5.5z" class="st5"/><path d="M36.4 38.6H30v-6.4h6.4zm-5.5-.9h4.6v-4.6h-4.6z" class="st3"/></svg>