<svg xmlns="http://www.w3.org/2000/svg" xml:space="preserve" id="图层_1" x="0" y="0" version="1.1" viewBox="0 0 64 64"><style>.st1{fill:#d3d3d3}.st2{fill:#fff}</style><path d="M54.1 11H10.6c-1.4 0-2.5 1.1-2.5 2.5v27.9c0 1.4 1.1 2.5 2.5 2.5h3.6v7.9l9.1-7.9h30.8c1.4 0 2.5-1.1 2.5-2.5V13.5c0-1.4-1.1-2.5-2.5-2.5" style="fill:#606060"/><path d="M13.7 52.8v-8.4h-3.2c-1.6 0-3-1.3-3-3V13.5c0-1.6 1.3-3 3-3H54c1.6 0 3 1.3 3 3v27.9c0 1.6-1.3 3-3 3H23.4zm-3.1-41.4c-1.1 0-2.1.9-2.1 2.1v27.9c0 1.1.9 2.1 2.1 2.1h4.1v7.3l8.5-7.3h30.9c1.1 0 2.1-.9 2.1-2.1V13.5c0-1.1-.9-2.1-2.1-2.1z" class="st1"/><path d="M30.6 15.8h5.3v13.4h-5.3z" class="st2"/><path d="M36.3 29.7h-6.2V15.4h6.2zm-5.3-.9h4.4V16.3H31z" class="st1"/><path d="M30.6 32.6h5.5v5.5h-5.5z" class="st2"/><path d="M36.5 38.5h-6.4v-6.4h6.4zm-5.5-.9h4.6V33H31z" class="st1"/></svg>