<svg xmlns="http://www.w3.org/2000/svg" xml:space="preserve" id="图层_1" x="0" y="0" version="1.1" viewBox="0 0 64 64"><style>.st9{fill:#d3d3d3}.st11{fill:#aaa}</style><path d="M51.8 22H13.2c-.4 0-.8-.3-.8-.8s.3-.8.8-.8h38.6c.4 0 .8.3.8.8s-.4.8-.8.8m0 3.7H13.2c-.4 0-.8-.3-.8-.8s.3-.8.8-.8h38.6c.4 0 .8.3.8.8s-.4.8-.8.8m0 3.7H13.2c-.4 0-.8-.3-.8-.8s.3-.8.8-.8h38.6c.4 0 .8.3.8.8s-.4.8-.8.8m0 3.6H13.2c-.4 0-.8-.3-.8-.8s.3-.8.8-.8h38.6c.4 0 .8.3.8.8s-.4.8-.8.8m0 3.7H13.2c-.4 0-.8-.3-.8-.8s.3-.8.8-.8h38.6c.4 0 .8.3.8.8s-.4.8-.8.8m0 3.6H13.2c-.4 0-.8-.3-.8-.8s.3-.8.8-.8h38.6c.4 0 .8.3.8.8s-.4.8-.8.8m0 3.7H13.2c-.4 0-.8-.3-.8-.8s.3-.8.8-.8h38.6c.4 0 .8.3.8.8s-.4.8-.8.8" class="st11"/><path d="M43.5 52.3c-.4 0-.8-.3-.8-.8V13c0-.4.3-.8.8-.8s.8.3.8.8v38.6c-.1.4-.4.7-.8.7m-3.7 0c-.4 0-.8-.3-.8-.8V13c0-.4.3-.8.8-.8s.8.3.8.8v38.6c0 .4-.4.7-.8.7m-3.6 0c-.4 0-.8-.3-.8-.8V13c0-.4.3-.8.8-.8s.8.3.8.8v38.6c-.1.4-.4.7-.8.7m-3.7 0c-.4 0-.8-.3-.8-.8V13c0-.4.3-.8.8-.8s.8.3.8.8v38.6c-.1.4-.4.7-.8.7m-3.7 0c-.4 0-.8-.3-.8-.8V13c0-.4.3-.8.8-.8s.8.3.8.8v38.6c0 .4-.3.7-.8.7m-3.6 0c-.4 0-.8-.3-.8-.8V13c0-.4.3-.8.8-.8s.8.3.8.8v38.6c-.1.4-.4.7-.8.7m-3.7 0c-.4 0-.8-.3-.8-.8V13c0-.4.3-.8.8-.8s.8.3.8.8v38.6c0 .4-.4.7-.8.7" class="st11"/><path d="M44.4 47H20.6c-1.6 0-2.8-1.3-2.8-2.8V20.4c0-1.6 1.3-2.8 2.8-2.8h23.8c1.6 0 2.8 1.3 2.8 2.8v23.8c.1 1.6-1.2 2.8-2.8 2.8" style="fill:#606060"/><path d="M44.4 47.5H20.6c-1.8 0-3.3-1.5-3.3-3.3V20.4c0-1.8 1.5-3.3 3.3-3.3h23.8c1.8 0 3.3 1.5 3.3 3.3v23.8c.1 1.8-1.4 3.3-3.3 3.3M20.6 18c-1.3 0-2.3 1-2.3 2.3v23.8c0 1.3 1 2.3 2.3 2.3h23.8c1.3 0 2.3-1 2.3-2.3V20.4c0-1.3-1-2.3-2.3-2.3H20.6z" class="st9"/><path d="M39.6 42.3H25.3c-1.6 0-2.8-1.3-2.8-2.8V25.1c0-1.6 1.3-2.8 2.8-2.8h14.3c1.6 0 2.8 1.3 2.8 2.8v14.3c.1 1.6-1.2 2.9-2.8 2.9" class="st11"/><path d="M39.7 42.8H25.3c-1.8 0-3.3-1.5-3.3-3.3V25.1c0-1.8 1.5-3.3 3.3-3.3h14.3c1.8 0 3.3 1.5 3.3 3.3v14.3c.1 1.9-1.4 3.4-3.2 3.4m-14.4-20c-1.3 0-2.3 1-2.3 2.3v14.3c0 1.3 1 2.3 2.3 2.3h14.3c1.3 0 2.3-1 2.3-2.3V25.1c0-1.3-1-2.3-2.3-2.3z" class="st9"/></svg>