<svg xmlns="http://www.w3.org/2000/svg" xml:space="preserve" id="图层_1" x="0" y="0" version="1.1" viewBox="0 0 64 64"><style>.st10{fill:#d3d3d3}</style><path d="M50.6 18.4v34.2c0 1.6-1.3 2.9-2.9 2.9H17.3c-1.6 0-2.9-1.3-2.9-2.9V12.1c0-1.6 1.3-2.9 2.9-2.9h24.3z" style="fill:#606060"/><path d="M41.7 8.9H17.3c-1.8 0-3.3 1.5-3.3 3.3v40.3c0 1.8 1.5 3.3 3.3 3.3h30.4c1.9 0 3.3-1.5 3.3-3.3V18.2zm-24.4 46c-1.4 0-2.5-1.1-2.5-2.5V12.1c0-1.4 1.1-2.5 2.5-2.5h24.1l8.7 8.8v34c0 1.4-1.1 2.5-2.5 2.5z" class="st10"/><path d="m44 15.8.2.2H44zm-2.6-6.1.1 8.8h8.6z" class="st10"/><path d="m23.4 38.5 5.4-5.4-5.4-5.4 3.7-3.7 5.4 5.4 5.4-5.4 3.7 3.7-5.4 5.4 5.4 5.4-3.7 3.7-5.4-5.4-5.4 5.4z" style="fill:#fff"/></svg>