<svg xmlns="http://www.w3.org/2000/svg" xml:space="preserve" id="图层_1" x="0" y="0" version="1.1" viewBox="0 0 64 64"><style>.st3{fill:#cae7ff}</style><path d="M50.6 18.4v34.2c0 1.6-1.3 2.9-2.9 2.9H17.3c-1.6 0-2.9-1.3-2.9-2.9V12.1c0-1.6 1.3-2.9 2.9-2.9h24.3z" style="fill:#006bc2"/><path d="M47.7 55.7H17.3c-1.8 0-3.3-1.5-3.3-3.3V12.1c0-1.8 1.5-3.3 3.3-3.3h24.5l9.2 9.3v34.2c0 1.9-1.5 3.4-3.3 3.4m-30.4-46c-1.4 0-2.5 1.1-2.5 2.5v40.3c0 1.4 1.1 2.5 2.5 2.5h30.4c1.4 0 2.5-1.1 2.5-2.5v-34l-8.7-8.8z" class="st3"/><path d="m41.5 18.5-.1-8.8 8.7 8.8z" class="st3"/><path d="m23.4 38.5 5.4-5.4-5.4-5.4 3.7-3.7 5.4 5.4 5.4-5.4 3.7 3.7-5.4 5.4 5.4 5.4-3.7 3.7-5.4-5.4-5.4 5.4z" style="fill:#fff"/></svg>