<svg xmlns="http://www.w3.org/2000/svg" xml:space="preserve" id="图层_1" x="0" y="0" version="1.1" viewBox="0 0 64 64"><style>.st3{fill:#cae7ff}.st5{fill:#fff}</style><path d="M45.5 12.4h-7.4L35.3 6H23.8L21 12.4h-7.4c-1.4 0-2.6 1.1-2.6 2.6v36.3c0 1.4 1.1 2.6 2.6 2.6h32c1.4 0 2.6-1.1 2.6-2.6V15c-.1-1.4-1.3-2.6-2.7-2.6zM27.1 8.7H32c.6 0 1 .4 1 .9s-.5.9-1 .9h-4.8c-.6 0-1-.4-1-.9-.1-.5.3-.9.9-.9z" style="fill:#7fbfff;stroke:#cae7ff;stroke-miterlimit:10"/><path d="M45.5 54.3h-32c-1.7 0-3-1.4-3-3V15c0-1.7 1.4-3 3-3h7.2l2.8-6.5h12l2.8 6.5h7.2c1.7 0 3 1.4 3 3v36.3c0 1.7-1.3 3-3 3M13.6 12.9c-1.2 0-2.1.9-2.1 2.1v36.3c0 1.2.9 2.1 2.1 2.1h32c1.2 0 2.1-.9 2.1-2.1V15c0-1.2-.9-2.1-2.1-2.1h-7.7L35 6.4H24.1l-2.8 6.5zm18.4-2h-4.8c-.8 0-1.5-.6-1.5-1.4s.7-1.4 1.5-1.4H32c.8 0 1.5.6 1.5 1.4s-.7 1.4-1.5 1.4m-4.9-1.8c-.3 0-.6.2-.6.4s.3.4.6.4H32c.3 0 .6-.2.6-.4s-.3-.4-.6-.4z" class="st3"/><path d="M25.6 22.9h15.5V26H25.6z" class="st5"/><circle cx="20.1" cy="24.4" r="2.1" class="st5"/><path d="M25.6 31h15.5v3.1H25.6z" class="st5"/><circle cx="20.1" cy="32.5" r="2.1" class="st5"/><path d="M25.6 39.1h15.5v3.1H25.6z" class="st5"/><circle cx="20.1" cy="40.7" r="2.1" class="st5"/><circle cx="42.1" cy="47.1" r="10.9" style="fill:#006bc2"/><path d="M34 55.2c-4.4-4.4-4.4-11.7 0-16.1s11.7-4.4 16.1 0 4.4 11.7 0 16.1-11.6 4.4-16.1 0m15.4-15.4c-4.1-4.1-10.6-4.1-14.7 0s-4.1 10.6 0 14.7 10.6 4.1 14.7 0 4.1-10.7 0-14.7" class="st3"/><path d="m36 50.7 3.6-3.6-3.6-3.6 2.5-2.5 3.6 3.6 3.6-3.6 2.5 2.5-3.6 3.6 3.6 3.6-2.5 2.5-3.6-3.6-3.6 3.6z" class="st5"/></svg>