<svg xmlns="http://www.w3.org/2000/svg" xml:space="preserve" id="图层_1" x="0" y="0" version="1.1" viewBox="0 0 64 64"><style>.st3{fill:#cae7ff}.st4{fill:#006bc2}</style><path d="M29.2 54.2 6.4 43.4V20.7l22.8 10.7z" class="st4"/><path d="m29.2 54.2 22.7-10.8V20.7L29.2 31.4zM9.3 20.7l19.9-9.4L49 20.7 29.2 30z" style="fill:#7fbfff"/><path d="m29.2 12.7 16.9 8-16.9 8-16.9-8zm0-2.8L6.4 20.7l22.8 10.8L52 20.7z" class="st3"/><circle cx="47.2" cy="43.3" r="10.9" class="st4"/><path d="M47.2 54.7c-6.3 0-11.4-5.1-11.4-11.4s5.1-11.4 11.4-11.4S58.6 37 58.6 43.3s-5.1 11.4-11.4 11.4m0-21.8c-5.7 0-10.4 4.7-10.4 10.4s4.7 10.4 10.4 10.4S57.6 49 57.6 43.3 53 32.9 47.2 32.9" class="st3"/><path d="M45.5 50.1V45h-5.1v-3.5h5.1v-5.1H49v5.1h5V45h-5v5.1z" style="fill:#fff"/></svg>