<svg xmlns="http://www.w3.org/2000/svg" xml:space="preserve" id="图层_1" x="0" y="0" version="1.1" viewBox="0 0 64 64"><style>.st9{fill:#606060}.st11{fill:#d3d3d3}</style><path d="M30.9 54.4 8.2 43.6V20.8l22.7 10.8z" class="st9"/><path d="m30.9 54.4 22.8-10.8V20.8L30.9 31.6zM11.1 20.8l19.8-9.4 19.9 9.4-19.9 9.4z" style="fill:#aaa"/><path d="m30.9 12.8 16.9 8-16.9 8-16.9-8zm0-2.7L8.2 20.8 31 31.6l22.8-10.8z" class="st11"/><circle cx="49" cy="43.5" r="10.9" class="st9"/><path d="M49 54.9c-6.3 0-11.4-5.1-11.4-11.4S42.7 32.1 49 32.1s11.4 5.1 11.4 11.4S55.3 54.9 49 54.9m0-21.8c-5.7 0-10.4 4.7-10.4 10.4S43.3 53.9 49 53.9s10.4-4.7 10.4-10.4S54.7 33.1 49 33.1" class="st11"/><path d="M47.2 50.3v-5.1h-5.1v-3.5h5.1v-5.1h3.5v5.1h5.1v3.5h-5.1v5.1z" style="fill:#fff"/></svg>