<svg xmlns="http://www.w3.org/2000/svg" xml:space="preserve" id="图层_1" x="0" y="0" version="1.1" viewBox="0 0 64 64"><style>.st3{fill:#d3d3d3}</style><circle cx="32" cy="32" r="23.8" style="fill:#606060"/><path d="M32 56.2C18.6 56.2 7.8 45.3 7.8 32S18.7 7.8 32 7.8c13.4 0 24.2 10.9 24.2 24.2S45.3 56.2 32 56.2m0-47.5C19.1 8.7 8.7 19.2 8.7 32S19.2 55.3 32 55.3c12.9 0 23.3-10.5 23.3-23.3S44.8 8.7 32 8.7" class="st3"/><path d="m43.8 24.6-4.4-4.4-7.4 7.4-7.5-7.4-4.4 4.4 7.4 7.4-7.4 7.4 4.4 4.4 7.5-7.4 7.4 7.4 4.4-4.4-7.4-7.4z" style="fill:#fff"/><path d="M39.4 44.5 32 37.1l-7.4 7.4-5.1-5.1 7.4-7.4-7.4-7.4 5.1-5.1 7.4 7.4 7.4-7.4 5.1 5.1-7.4 7.4 7.4 7.4zm-18.7-5.1 3.8 3.8 7.4-7.4 7.4 7.4 3.8-3.8-7.4-7.4 7.4-7.4-3.8-3.8-7.4 7.4-7.4-7.4-3.8 3.8 7.4 7.4z" class="st3"/></svg>