<svg xmlns="http://www.w3.org/2000/svg" xml:space="preserve" id="图层_1" x="0" y="0" version="1.1" viewBox="0 0 64 64"><style>.st1{fill:#d3d3d3}</style><path d="M48.1 16.2H27.3l-1.8-2.5c-.4-.8-1.1-1.2-1.8-1.2H11.1c-1.2 0-2.1 1.2-2.1 2.8v34.1c0 1.2 1 2.1 2.1 2.1h37c1.2 0 2.1-1 2.1-2.1v-31c0-1.2-1-2.2-2.1-2.2" style="fill:#aaa"/><path d="M48.1 52h-37c-1.4 0-2.6-1.2-2.6-2.6V15.2c0-1.8 1.2-3.2 2.6-3.2h12.7c.9 0 1.7.5 2.2 1.5l1.7 2.3h20.5c1.4 0 2.6 1.2 2.6 2.6v31c-.1 1.3-1.4 2.6-2.7 2.6M10.9 13c-.9 0-1.7 1.1-1.7 2.3v34.1c0 .9.8 1.7 1.7 1.7h37c.9 0 1.7-.8 1.7-1.7v-31c0-.9-.8-1.7-1.7-1.7h-21l-2-2.7c-.4-.7-.9-1-1.4-1z" class="st1"/><path d="M48.3 51.5H11.1c-1.3 0-2.3-1.2-2.1-2.5l4.7-25.4c.2-1 1.1-1.7 2.1-1.7h37.3c1.3 0 2.3 1.2 2.1 2.5l-4.7 25.4c-.3.9-1.2 1.7-2.2 1.7" style="fill:#606060"/><path d="M48.3 52H11.1c-.8 0-1.5-.3-2-.9s-.7-1.4-.6-2.1l4.7-25.4c.2-1.2 1.3-2.1 2.5-2.1H53c.8 0 1.5.3 2 .9s.7 1.4.6 2.1l-4.7 25.4c-.2 1.1-1.3 2.1-2.6 2.1M15.7 22.3c-.8 0-1.5.6-1.7 1.4L9.3 49.1c-.1.5 0 1 .4 1.4.3.4.8.6 1.3.6h37.3c.8 0 1.5-.6 1.7-1.4l4.7-25.4c.1-.5 0-1-.4-1.4-.3-.4-.8-.6-1.3-.6z" class="st1"/></svg>