<svg xmlns="http://www.w3.org/2000/svg" xml:space="preserve" id="图层_1" x="0" y="0" version="1.1" viewBox="0 0 64 64"><style>.st3{fill:#cae7ff}.st4{fill:#006bc2}</style><path d="M40 54.3H10.7V9.7H40" class="st3"/><path d="M40 54.8H10.2V9.2H40v1H11.2v43.6H40z" class="st4"/><path d="M18.6 35.2h22.1l-6.4 6.4 4.7 4.7 9.6-9.6 4.7-4.7-4.7-4.7-9.6-9.6-4.7 4.7 6.4 6.4H18.6z" class="st4"/><path d="M39 17.2 53.8 32 39 46.8l-5.2-5.2 6-6H18.2v-7.2h21.6l-6-6zM52.8 32 39 18.2l-4.2 4.2 6.8 6.8H18.9v5.7h22.7l-6.8 6.8 4.2 4.2z" class="st3"/></svg>