<svg xmlns="http://www.w3.org/2000/svg" xml:space="preserve" id="图层_1" x="0" y="0" version="1.1" viewBox="0 0 64 64"><style>.st2{fill:#7fbfff}.st3{fill:#cae7ff}.st4{fill:#006bc2}.st5{fill:#fff}</style><path d="M45.3 57.1h-34c-1.9 0-3.4-1.5-3.4-3.4V6.6c0-1.9 1.5-3.4 3.4-3.4h28.4l10.6 10.7v28.3" class="st5"/><path d="M45.3 57.8h-34c-2.2 0-4.1-1.8-4.1-4V6.7c0-2.2 1.8-4.1 4.1-4.1h28.6l10.9 11.1v28.6h-1.3v-28L39.3 4h-28C9.8 4 8.6 5.2 8.6 6.7v47c0 1.5 1.2 2.7 2.7 2.7h34z" class="st4"/><path d="M14.5 21.2c-.5-.5-.8-1.2-.8-2.1v-4.4c0-.9.3-1.6.8-2.1s1.2-.7 2.2-.7 1.7.2 2.2.7.8 1.2.8 2.1v4.5c0 .9-.3 1.6-.8 2.1s-1.2.7-2.2.7c-.9 0-1.7-.3-2.2-.8m3.1-1.4c.2-.3.3-.6.3-1.1v-3.5c0-.5-.1-.8-.3-1.1s-.5-.4-.8-.4-.7.1-.8.4-.3.6-.3 1.1v3.5c0 .5.1.8.3 1.1s.5.4.8.4.6-.1.8-.4" class="st4"/><path d="M16.7 22.3c-1 0-1.8-.3-2.4-.8s-.8-1.3-.8-2.3v-4.5c0-1 .3-1.7.8-2.3.6-.5 1.4-.8 2.4-.8s1.8.3 2.4.8.8 1.3.8 2.3v4.5c0 1-.3 1.7-.8 2.3-.5.5-1.3.8-2.4.8m0-10.1c-.9 0-1.6.2-2 .7-.5.4-.7 1.1-.7 1.9v4.5c0 .8.2 1.4.7 1.9.4.4 1.1.7 2 .7s1.6-.2 2-.7c.5-.4.7-1.1.7-1.9v-4.6c0-.8-.2-1.4-.7-1.9-.4-.4-1.1-.6-2-.6m0 8.3c-.6 0-.9-.3-1-.5-.2-.3-.3-.7-.3-1.3v-3.5c0-.5.1-1 .3-1.3.2-.2.5-.5 1-.5s.9.3 1 .5c.2.3.3.7.3 1.3v3.5c0 .5-.1 1-.3 1.3-.1.2-.4.5-1 .5m0-6.5q-.45 0-.6.3c-.1.2-.2.5-.2 1v3.5c0 .4.1.7.2 1q.15.3.6.3c.45 0 .5-.1.6-.3s.2-.5.2-1v-3.5c0-.4-.1-.7-.2-1s-.3-.3-.6-.3" class="st3"/><path d="M39.2 21.2c-.5-.5-.8-1.2-.8-2.1v-4.4c0-.9.3-1.6.8-2.1s1.2-.7 2.2-.7 1.7.2 2.2.7.8 1.2.8 2.1v4.5c0 .9-.3 1.6-.8 2.1s-1.2.7-2.2.7-1.7-.3-2.2-.8m3-1.4c.2-.3.3-.6.3-1.1v-3.5c0-.5-.1-.8-.3-1.1s-.5-.4-.8-.4c-.4 0-.7.1-.8.4-.2.3-.3.6-.3 1.1v3.5c0 .5.1.8.3 1.1s.5.4.8.4.6-.1.8-.4" class="st4"/><path d="M41.4 22.3c-1 0-1.8-.3-2.4-.8s-.8-1.3-.8-2.3v-4.5c0-1 .3-1.7.8-2.3.6-.5 1.4-.8 2.4-.8s1.8.3 2.4.8.8 1.3.8 2.3v4.5c0 1-.3 1.7-.8 2.3-.6.5-1.4.8-2.4.8m0-10.1c-.9 0-1.6.2-2 .7-.4.4-.7 1.1-.7 1.9v4.5c0 .8.2 1.4.7 1.9.4.4 1.1.7 2 .7s1.6-.2 2-.7c.4-.4.7-1.1.7-1.9v-4.6c0-.8-.2-1.4-.7-1.9-.5-.4-1.1-.6-2-.6m0 8.3c-.6 0-.9-.3-1-.5-.2-.3-.3-.7-.3-1.3v-3.5c0-.5.1-1 .3-1.3.2-.2.5-.5 1-.5.6 0 .9.3 1 .5.2.3.3.7.3 1.3v3.5c0 .5-.1 1-.3 1.3-.1.2-.5.5-1 .5m0-6.5c-.4 0-.5.2-.6.3-.1.2-.2.5-.2 1v3.5c0 .4.1.7.2 1 .1.1.2.3.6.3q.45 0 .6-.3c.1-.2.2-.5.2-1v-3.5c0-.4-.1-.7-.2-1-.2-.3-.4-.3-.6-.3" class="st3"/><path d="M30.3 21.9h-1.9v-7.7l-1.2.5v-2l1.5-.7h1.6z" class="st2"/><path d="M30.5 22.2h-2.4v-7.6l-1.2.5v-2.5l1.7-.8h1.9zm-1.8-.6H30v-9.3h-1.3l-1.3.6v1.4l1.2-.5v7.8z" class="st3"/><path d="M14.5 47.6c-.5-.5-.8-1.2-.8-2.1V41c0-.9.3-1.6.8-2.1s1.2-.7 2.2-.7 1.7.2 2.2.7.8 1.2.8 2.1v4.5c0 .9-.3 1.6-.8 2.1s-1.2.7-2.2.7c-.9.1-1.7-.2-2.2-.7m3.1-1.4c.2-.3.3-.6.3-1.1v-3.5c0-.5-.1-.8-.3-1.1s-.5-.4-.8-.4-.7.1-.8.4c-.2.3-.3.6-.3 1.1v3.5c0 .5.1.8.3 1.1s.5.4.8.4.6-.1.8-.4" class="st4"/><path d="M16.7 48.7c-1 0-1.8-.3-2.4-.8s-.8-1.3-.8-2.3v-4.5c0-1 .3-1.7.8-2.3.6-.5 1.4-.8 2.4-.8s1.8.3 2.4.8.8 1.3.8 2.3v4.5c0 1-.3 1.7-.8 2.3-.5.5-1.3.8-2.4.8m0-10.1c-.9 0-1.6.2-2 .7-.5.4-.7 1.1-.7 1.9v4.5c0 .8.2 1.4.7 1.9.4.4 1.1.7 2 .7s1.6-.2 2-.7c.5-.4.7-1.1.7-1.9v-4.5c0-.8-.2-1.4-.7-1.9-.4-.5-1.1-.7-2-.7m0 8.3c-.5 0-.8-.2-1-.5s-.3-.7-.3-1.3v-3.5c0-.5.1-1 .3-1.3s.6-.5 1-.5c.5 0 .8.2 1 .5s.3.7.3 1.3v3.5c0 .5-.1.9-.3 1.3-.2.3-.5.5-1 .5m0-6.5c-.4 0-.5.2-.6.3-.1.2-.2.5-.2 1v3.5c0 .4.1.7.2 1 .1.1.2.3.6.3s.5-.2.6-.3c.1-.2.2-.5.2-1v-3.5c0-.4-.1-.7-.2-1q0-.3-.6-.3" class="st3"/><path d="M30.3 48.3h-1.9v-7.7l-1.2.5v-2l1.5-.7h1.6z" class="st2"/><path d="M30.5 48.6h-2.4V41l-1.2.5V39l1.7-.8h1.9zm-1.8-.6H30v-9.3h-1.3l-1.3.6v1.4l1.2-.5V48z" class="st3"/><path d="M18 35.2h-1.9v-7.7l-1.2.5v-2l1.5-.7H18z" class="st2"/><path d="M18.2 35.5h-2.4v-7.6l-1.2.5v-2.5l1.7-.8h1.9zm-1.8-.5h1.3v-9.3h-1.3l-1.3.6v1.4l1.2-.5V35z" class="st3"/><path d="M42.6 35.2h-1.9v-7.7l-1.2.5v-2l1.5-.7h1.6z" class="st2"/><path d="M42.9 35.5h-2.4v-7.6l-1.2.5v-2.5l1.7-.8h1.9zM41 35h1.3v-9.3H41l-1.3.6v1.4l1.2-.5V35z" class="st3"/><path d="M26.8 34.6c-.5-.5-.8-1.2-.8-2.1V28c0-.9.3-1.6.8-2.1s1.2-.7 2.2-.7 1.7.2 2.2.7.8 1.2.8 2.1v4.5c0 .9-.3 1.6-.8 2.1s-1.2.7-2.2.7c-.9 0-1.7-.2-2.2-.7m3.1-1.5c.2-.3.3-.6.3-1.1v-3.5c0-.5-.1-.8-.3-1.1s-.5-.4-.8-.4c-.4 0-.7.1-.8.4-.2.3-.3.6-.3 1.1V32c0 .5.1.8.3 1.1s.5.4.8.4.6-.1.8-.4" class="st4"/><path d="M29 35.6c-1 0-1.8-.3-2.4-.8s-.8-1.3-.8-2.3V28c0-1 .3-1.7.8-2.3.6-.5 1.4-.8 2.4-.8s1.8.3 2.4.8.8 1.3.8 2.3v4.5c0 1-.3 1.7-.8 2.3-.5.5-1.3.8-2.4.8m0-10.1c-.9 0-1.6.2-2 .7-.5.4-.7 1.1-.7 1.9v4.5c0 .8.2 1.4.7 1.9.4.4 1.1.7 2 .7s1.6-.2 2-.7c.5-.4.7-1.1.7-1.9v-4.5c0-.8-.2-1.4-.7-1.9-.4-.5-1.1-.7-2-.7m0 8.3c-.5 0-.8-.2-1-.5s-.3-.7-.3-1.3v-3.5c0-.5.1-1 .3-1.3s.6-.5 1-.5c.5 0 .8.2 1 .5s.3.7.3 1.3V32c0 .5-.1.9-.3 1.3-.1.3-.5.5-1 .5m0-6.5c-.4 0-.5.2-.6.3-.1.2-.2.5-.2 1v3.5c0 .4.1.7.2 1 .1.1.2.3.6.3s.5-.2.6-.3c.1-.2.2-.5.2-1v-3.5c0-.4-.1-.7-.2-1q0-.3-.6-.3" class="st3"/><path d="m46.5 52.2 1-1c.3-.3.9-.3 1.3 0l7.8 7.8c.3.3.3.9 0 1.3l-1 1c-.3.3-.9.3-1.3 0l-7.8-7.8c-.3-.4-.3-.9 0-1.3" class="st4"/><path d="M54.9 61.7c-.5 0-1.1-.2-1.4-.6l-6.8-6.8c-.8-.8-.8-2.1 0-2.9s2.1-.8 2.9 0l6.8 6.8c.8.8.8 2.1 0 2.9q-.6.6-1.5.6m-6.8-10c-.3 0-.6.1-.8.3-.4.4-.4 1.2 0 1.6l6.8 6.8c.2.2.5.3.8.3s.6-.1.8-.3c.4-.4.4-1.2 0-1.6L48.9 52c-.2-.2-.5-.3-.8-.3" class="st3"/><circle cx="42.7" cy="47.9" r="9.8" class="st4" transform="rotate(-80.781 42.722 47.868)"/><path d="M42.7 58.2c-2.6 0-5.3-1-7.3-3-4-4-4-10.5 0-14.6 4-4 10.5-4 14.6 0 4 4 4 10.5 0 14.6-2.1 1.9-4.7 3-7.3 3m0-19.7c-2.4 0-4.8.9-6.6 2.7-3.7 3.7-3.7 9.6 0 13.3s9.6 3.7 13.3 0 3.7-9.6 0-13.3c-1.9-1.8-4.3-2.7-6.7-2.7" class="st3"/><circle cx="42.7" cy="47.9" r="6.1" class="st5"/><path d="M42.7 54.4c-1.7 0-3.4-.6-4.7-1.9-1.2-1.2-1.9-2.9-1.9-4.7s.7-3.4 1.9-4.7c2.6-2.6 6.7-2.6 9.3 0s2.6 6.7 0 9.3c-1.3 1.4-2.9 2-4.6 2m0-12.2c-1.5 0-2.9.6-4 1.7s-1.7 2.5-1.7 4 .6 2.9 1.7 4c2.2 2.2 5.8 2.2 8 0s2.2-5.8 0-8c-1.1-1.2-2.6-1.7-4-1.7" class="st3"/></svg>