<svg xmlns="http://www.w3.org/2000/svg" xml:space="preserve" id="图层_1" x="0" y="0" version="1.1" viewBox="0 0 64 64"><style>.st2{fill:#aaa}.st3{fill:#d3d3d3}.st4{fill:#606060}</style><path d="M49.6 13.7v39.8c0 1.9-1.5 3.4-3.4 3.4H10.7c-1.9 0-3.4-1.5-3.4-3.4V6.4C7.3 4.5 8.8 3 10.7 3h28.4z" style="fill:#fff"/><path d="M46.2 57.7H10.7c-2.2 0-4-1.8-4-4V6.6c0-2.2 1.8-4.1 4-4.1h28.6l10.9 11.1v40c0 2.1-1.8 4.1-4 4.1M10.6 3.6c-1.5 0-2.7 1.3-2.7 2.8v47.1c0 1.5 1.2 2.7 2.7 2.7h35.5c1.5 0 2.7-1.2 2.7-2.7V13.9L38.6 3.6z" class="st4"/><path d="M13.9 21c-.5-.5-.8-1.2-.8-2.1v-4.4c0-.9.3-1.6.8-2.1s1.2-.7 2.2-.7 1.7.2 2.2.7.8 1.2.8 2.1V19c0 .9-.3 1.6-.8 2.1s-1.2.7-2.2.7-1.7-.3-2.2-.8m3-1.4c.2-.3.3-.6.3-1.1V15c0-.5-.1-.8-.3-1.1s-.5-.4-.8-.4-.7.1-.8.4-.3.6-.3 1.1v3.5c0 .5.1.8.3 1.1s.5.4.8.4.6-.1.8-.4" class="st4"/><path d="M16.1 22.1c-1 0-1.8-.3-2.4-.8s-.8-1.3-.8-2.3v-4.5c0-1 .3-1.7.8-2.3.6-.5 1.4-.8 2.4-.8s1.8.3 2.4.8.8 1.3.8 2.3V19c0 1-.3 1.7-.8 2.3-.6.5-1.4.8-2.4.8m0-10.1c-.9 0-1.6.2-2 .7-.4.4-.7 1.1-.7 1.9v4.5c0 .8.2 1.4.7 1.9.4.4 1.1.7 2 .7s1.6-.2 2-.7c.4-.4.7-1.1.7-1.9v-4.6c0-.8-.2-1.4-.7-1.9-.5-.4-1.1-.6-2-.6m0 8.3c-.6 0-.9-.3-1-.5-.2-.3-.3-.7-.3-1.3V15c0-.5.1-1 .3-1.3.2-.2.5-.5 1-.5.6 0 .9.3 1 .5.2.3.3.7.3 1.3v3.5c0 .5-.1 1-.3 1.3-.1.2-.4.5-1 .5m0-6.5c-.4 0-.5.2-.6.3-.1.2-.2.5-.2 1v3.5c0 .4.1.7.2 1 .1.1.2.3.6.3q.45 0 .6-.3c.1-.2.2-.5.2-1v-3.5c0-.4-.1-.7-.2-1s-.3-.3-.6-.3" class="st3"/><path d="M38.5 21c-.5-.5-.8-1.2-.8-2.1v-4.4c0-.9.3-1.6.8-2.1s1.2-.7 2.2-.7 1.7.2 2.2.7.8 1.2.8 2.1V19c0 .9-.3 1.6-.8 2.1s-1.2.7-2.2.7c-.9 0-1.7-.3-2.2-.8m3-1.4c.2-.3.3-.6.3-1.1V15c0-.5-.1-.8-.3-1.1s-.5-.4-.8-.4c-.4 0-.7.1-.8.4s-.3.6-.3 1.1v3.5c0 .5.1.8.3 1.1s.5.4.8.4c.4 0 .7-.1.8-.4" class="st4"/><path d="M40.7 22.1c-1 0-1.8-.3-2.4-.8s-.8-1.3-.8-2.3v-4.5c0-1 .3-1.7.8-2.3.6-.5 1.4-.8 2.4-.8s1.8.3 2.4.8.8 1.3.8 2.3V19c0 1-.3 1.7-.8 2.3-.6.5-1.4.8-2.4.8m0-10.1c-.9 0-1.6.2-2 .7-.4.4-.7 1.1-.7 1.9v4.5c0 .8.2 1.4.7 1.9.4.4 1.1.7 2 .7s1.6-.2 2-.7c.5-.4.7-1.1.7-1.9v-4.6c0-.8-.2-1.4-.7-1.9-.4-.4-1.1-.6-2-.6m0 8.3c-.6 0-.9-.3-1-.5-.2-.3-.3-.7-.3-1.3V15c0-.5.1-1 .3-1.3.2-.2.5-.5 1-.5s.8.2 1 .5.3.7.3 1.3v3.5c0 .5-.1 1-.3 1.3s-.5.5-1 .5m0-6.5q-.45 0-.6.3c-.1.2-.2.5-.2 1v3.5c0 .4.1.7.2 1q.15.3.6.3c.4 0 .5-.2.6-.3.1-.2.2-.5.2-1v-3.5c0-.4-.1-.7-.2-1-.1-.2-.2-.3-.6-.3" class="st3"/><path d="M29.6 21.7h-1.9V14l-1.2.5v-2l1.5-.7h1.6z" class="st2"/><path d="M29.9 22h-2.4v-7.6l-1.2.5v-2.5l1.7-.8h1.9zm-1.9-.6h1.3v-9.3h-1.2l-1.3.6v1.4l1.2-.5z" class="st3"/><path d="M13.9 47.4c-.5-.5-.8-1.2-.8-2.1v-4.5c0-.9.3-1.6.8-2.1s1.2-.7 2.2-.7 1.7.2 2.2.7.8 1.2.8 2.1v4.5c0 .9-.3 1.6-.8 2.1s-1.2.7-2.2.7c-1 .1-1.7-.2-2.2-.7m3-1.4c.2-.3.3-.6.3-1.1v-3.5c0-.5-.1-.8-.3-1.1s-.5-.4-.8-.4-.7.1-.8.4c-.2.3-.3.6-.3 1.1v3.5c0 .5.1.8.3 1.1s.5.4.8.4.6-.1.8-.4" class="st4"/><path d="M16.1 48.5c-1 0-1.8-.3-2.4-.8s-.8-1.3-.8-2.3v-4.5c0-1 .3-1.7.8-2.3.6-.5 1.4-.8 2.4-.8s1.8.3 2.4.8.8 1.3.8 2.3v4.5c0 1-.3 1.7-.8 2.3-.6.5-1.4.8-2.4.8m-2-1.2c.5.4 1.1.7 2 .7s1.6-.2 2-.7c.5-.4.7-1.1.7-1.9V41c0-.8-.2-1.4-.7-1.9-.5-.4-1.1-.7-2-.7s-1.6.2-2 .7c-.5.4-.7 1.1-.7 1.9v4.5c0 .7.2 1.3.7 1.8m2-.6c-.5 0-.8-.2-1-.5s-.3-.7-.3-1.3v-3.5c0-.5.1-1 .3-1.3s.6-.5 1-.5.8.2 1 .5.3.7.3 1.3v3.5c0 .5-.1.9-.3 1.3-.2.3-.5.5-1 .5m0-6.5c-.4 0-.5.2-.6.3-.1.2-.2.5-.2 1V45c0 .4.1.7.2 1 .1.1.2.3.6.3s.5-.2.6-.3c.1-.2.2-.5.2-1v-3.5c0-.4-.1-.7-.2-1-.1-.2-.2-.3-.6-.3" class="st3"/><path d="M29.6 48.2h-1.9v-7.7l-1.2.5v-2l1.5-.7h1.6z" class="st2"/><path d="M29.9 48.4h-2.4v-7.6l-1.2.5v-2.5L28 38h1.9zm-1.9-.6h1.3v-9.3h-1.2l-1.3.6v1.4L28 40z" class="st3"/><path d="M17.3 35h-1.9v-7.7l-1.2.5v-2l1.5-.7h1.6z" class="st2"/><path d="M17.6 35.3h-2.4v-7.6l-1.2.5v-2.5l1.7-.8h1.9zm-1.9-.5H17v-9.3h-1.3l-1.3.6v1.4l1.2-.5v7.8z" class="st3"/><path d="M41.9 35h-1.8v-7.7l-1.2.5v-2l1.5-.7H42V35z" class="st2"/><path d="M42.2 35.3h-2.4v-7.6l-1.2.5v-2.5l1.7-.8h1.9zm-1.9-.5h1.3v-9.3h-1.3l-1.3.7v1.4l1.2-.5v7.8h.1z" class="st3"/><path d="M26.2 34.4c-.5-.5-.8-1.2-.8-2.1v-4.5c0-.9.3-1.6.8-2.1s1.2-.7 2.2-.7 1.7.2 2.2.7.8 1.2.8 2.1v4.5c0 .9-.3 1.6-.8 2.1s-1.2.7-2.2.7c-1 .1-1.7-.2-2.2-.7m3-1.5c.2-.3.3-.6.3-1.1v-3.5c0-.5-.1-.8-.3-1.1s-.5-.4-.8-.4c-.4 0-.7.1-.8.4-.2.3-.3.6-.3 1.1v3.5c0 .5.1.8.3 1.1s.5.4.8.4c.4 0 .7-.1.8-.4" class="st4"/><path d="M28.4 35.4c-1 0-1.8-.3-2.4-.8s-.8-1.3-.8-2.3v-4.5c0-1 .3-1.7.8-2.3.6-.5 1.4-.8 2.4-.8s1.8.3 2.4.8.8 1.3.8 2.3v4.5c0 1-.3 1.7-.8 2.3-.6.6-1.4.8-2.4.8m0-10.1c-.9 0-1.6.2-2 .7-.5.4-.7 1.1-.7 1.9v4.5c0 .8.2 1.4.7 1.9.4.4 1.1.7 2 .7s1.6-.2 2-.7c.5-.4.7-1.1.7-1.9v-4.5c0-.8-.2-1.4-.7-1.9-.4-.5-1.1-.7-2-.7m0 8.4c-.5 0-.8-.2-1-.5s-.3-.7-.3-1.3v-3.5c0-.5.1-1 .3-1.3s.6-.5 1-.5c.5 0 .8.2 1 .5s.3.7.3 1.3v3.5c0 .5-.1.9-.3 1.3-.2.2-.5.5-1 .5m0-6.5c-.4 0-.5.2-.6.3-.1.2-.2.5-.2 1V32c0 .4.1.7.2 1 .1.1.2.3.6.3s.5-.2.6-.3c.1-.2.2-.5.2-1v-3.5c0-.4-.1-.7-.2-1s-.2-.3-.6-.3" class="st3"/><path d="M56.6 51.2v-3.4h-3c-.2-1.1-.7-2.2-1.3-3.2l2.1-2.1-2.4-2.4-2.1 2.1c-.9-.6-2-1.1-3.2-1.4v-2.9h-3.4v2.9c-1.1.2-2.3.7-3.3 1.3l-2-2-2.4 2.4 2 2c-.7 1-1.1 2.1-1.4 3.3h-2.8v3.4h2.8c.2 1.2.7 2.3 1.4 3.3l-2 2 2.4 2.4 2-2c1 .6 2.1 1.1 3.3 1.3v2.9h3.4v-2.9c1.2-.2 2.2-.7 3.2-1.4l2.1 2.1 2.4-2.4-2.1-2.1c.6-.9 1.1-2 1.3-3.2zm-11.6 2c-2.1 0-3.8-1.7-3.8-3.8s1.7-3.8 3.8-3.8 3.8 1.7 3.8 3.8-1.7 3.8-3.8 3.8" class="st4"/><path d="M47.2 61.5h-4.3v-3c-1-.2-1.9-.6-2.8-1.1L38 59.5l-3.1-3.1 2.1-2.1c-.5-.9-.9-1.8-1.2-2.8h-2.9v-4.3h2.9c.2-1 .6-1.9 1.2-2.8l-2.1-2.1 3.1-3.1 2.1 2.1c.9-.5 1.8-.9 2.8-1.1v-3h4.3v3c1 .2 1.8.6 2.7 1.1l2.2-2.2 3.1 3.1-2.2 2.2c.5.8.9 1.7 1.1 2.7h3.1v4.3h-3.1c-.2.9-.6 1.8-1.1 2.7l2.2 2.2-3.1 3.1-2.2-2.2c-.8.5-1.7.9-2.7 1.1zm-3.5-.8h2.6v-2.9l.4-.1c1.1-.2 2.1-.7 3-1.3l.3-.2 2.1 2.1 1.8-1.8-2.1-2.1.2-.4q.9-1.35 1.2-3l.1-.4h3V48h-3l-.1-.4q-.3-1.65-1.2-3l-.2-.3 2.1-2.1-1.8-1.8-2.1 2.1-.3-.2c-.9-.6-1.9-1.1-3-1.3l-.4-.1V38h-2.6v2.8l-.4.2c-1.1.2-2.2.6-3.1 1.2l-.3.2-2-2-1.8 1.8L38 44l-.2.3c-.6.9-1.1 2-1.3 3.1l-.1.4h-2.7v2.6h2.7l.1.4c.2 1.1.7 2.2 1.3 3.1l.2.3-1.9 1.9 1.8 1.8 2-2 .3.2c.9.6 2 1 3.1 1.2l.4.1zm1.3-7c-2.4 0-4.3-1.9-4.3-4.3s1.9-4.3 4.3-4.3 4.3 1.9 4.3 4.3-1.9 4.3-4.3 4.3m0-7.7c-1.9 0-3.4 1.5-3.4 3.4s1.5 3.4 3.4 3.4 3.4-1.5 3.4-3.4S46.9 46 45 46" class="st3"/></svg>