<svg xmlns="http://www.w3.org/2000/svg" xml:space="preserve" id="图层_1" x="0" y="0" version="1.1" viewBox="0 0 64 64"><style>.st3{fill:#cae7ff}</style><circle cx="31.9" cy="32.2" r="23.8" style="fill:#006bc2"/><path d="M31.9 56.4c-13.4 0-24.2-10.9-24.2-24.2S18.6 8 31.9 8c13.4 0 24.2 10.9 24.2 24.2S45.2 56.4 31.9 56.4m0-47.5C19 8.9 8.6 19.4 8.6 32.2s10.5 23.3 23.3 23.3c12.9 0 23.3-10.5 23.3-23.3S44.7 8.9 31.9 8.9" class="st3"/><path d="m43.7 24.8-4.4-4.4-7.4 7.4-7.5-7.4-4.4 4.4 7.4 7.4-7.4 7.4 4.4 4.4 7.5-7.4 7.4 7.4 4.4-4.4-7.4-7.4z" style="fill:#fff"/><path d="m39.3 44.7-7.4-7.4-7.4 7.4-5.1-5.1 7.4-7.4-7.4-7.4 5.1-5.1 7.4 7.4 7.4-7.4 5.1 5.1-7.4 7.4 7.4 7.4zm-18.7-5.1 3.8 3.8 7.4-7.4 7.4 7.4 3.8-3.8-7.4-7.4 7.4-7.4-3.8-3.8-7.4 7.4-7.4-7.4-3.8 3.8 7.4 7.4z" class="st3"/></svg>