<svg xmlns="http://www.w3.org/2000/svg" xml:space="preserve" viewBox="0 0 64 64"><path d="m41.8 17.1-.5-.5 4.7-4.7c.3-.3.7-.1.8.3l4.6 17c.3 1.1-.7 2.1-1.8 1.8l-17-4.6c-.4-.1-.6-.6-.3-.8l4-4 .4.4c-3.6-3.6-9.5-4.2-13.4-1-4.5 3.7-4.8 10.5-.8 14.5l11.4 11.4c.4.4.4 1.1 0 1.4l-3.6 3.6c-.4.4-1.1.4-1.4 0L17.4 40.5c-6.9-6.9-6.6-18.2.8-24.7 6.9-5.9 17.3-5.1 23.6 1.3" style="fill:#606060"/><path d="M12.1 28c.1-4.8 2.3-9.2 5.9-12.4 6.9-6 17.5-5.4 24.1 1.2l-.7-.8 4.4-4.4c.2-.2.6-.3.9-.2q.6.15.6.6l4.6 17c.1.7 0 1.4-.5 1.9s-1.2.6-1.9.5l-17.1-4.5c-.3 0-.6-.3-.6-.6-.1-.4 0-.7.2-.9l3.8-3.8.6.6c-3.5-3.5-9.1-3.9-12.8-.9-2.1 1.8-3.3 4.1-3.4 6.8s.8 5.2 2.7 7.1l11.4 11.4c.6.6.6 1.6 0 2.1l-3.6 3.6c-.6.6-1.6.6-2.1 0L17.2 40.8c-3.4-3.3-5.2-8-5.1-12.8m21.5 19.3L22.2 36c-2.1-2.1-3.1-4.9-3-7.8.1-3 1.5-5.6 3.7-7.4 4-3.3 10.2-2.8 14 1l.1-.1-4.2 4.4 17 4.6c.4.1.7 0 1-.3s.4-.6.3-1l-4.7-17.1-5 5 .1.1c-6.3-6.3-16.3-6.9-22.8-1.2-3.5 3-5.4 7.3-5.7 11.9-.1 4.5 1.6 9 4.8 12.2l11.4 11.4c.2.2.6.2.8 0l3.6-3.6c.2-.2.2-.7 0-.8" style="fill:#d3d3d3"/></svg>