<svg xmlns="http://www.w3.org/2000/svg" xml:space="preserve" id="图层_1" x="0" y="0" version="1.1" viewBox="0 0 64 64"><style>.st2{fill:#7fbfff}.st3{fill:#cae7ff}.st4{fill:#006bc2}</style><path d="M46.4 9.4H17c-.8 0-1.4.6-1.4 1.4v36.6c0 .8.6 1.4 1.4 1.4h36.6c.8 0 1.4-.6 1.4-1.4V18z" class="st4"/><path d="M53.5 49.2H17c-.9 0-1.8-.8-1.8-1.8V10.7c0-.9.8-1.8 1.8-1.8h29.6l8.8 8.8v29.6c0 1.1-.8 1.9-1.9 1.9M17 9.7c-.6 0-1 .4-1 1v36.6c0 .6.4 1 1 1h36.6c.6 0 1-.4 1-1V18.1l-8.4-8.4z" class="st4"/><path d="M24 9.4h22.5v14.8H24z" class="st4"/><path d="M46.9 24.5H23.6V8.9h23.3zm-22.5-.8h21.7v-14H24.4z" class="st4"/><path d="M25 31.1h20.6c1.1 0 2 .9 2 2v15.7H23V33.1c0-1.1.9-2 2-2" style="fill:#aaa"/><path d="M47.9 49.2H22.6v-16c0-1.4 1.1-2.6 2.6-2.6h20.2c1.4 0 2.6 1.1 2.6 2.6zm-24.5-.8h23.9V33.2c0-.9-.8-1.8-1.8-1.8H25.2c-.9 0-1.8.8-1.8 1.8z" style="fill:#d3d3d3"/><path d="M38.9 12.8h3.9v7.8h-3.9z" class="st4"/><path d="M40.8 15.8H11.5c-.8 0-1.4.6-1.4 1.4v36.6c0 .8.6 1.4 1.4 1.4h36.6c.8 0 1.4-.6 1.4-1.4V24.4z" class="st4"/><path d="M48 55.6H11.5c-.9 0-1.8-.8-1.8-1.8V17.2c0-.9.8-1.8 1.8-1.8H41l8.8 8.8v29.6c0 1.1-.8 1.8-1.8 1.8M11.5 16.2c-.6 0-1 .4-1 1v36.6c0 .6.4 1 1 1h36.6c.6 0 1-.4 1-1V24.5l-8.4-8.4H11.5z" class="st3"/><path d="M18.4 15.8h22.5v14.8H18.4z" class="st2"/><path d="M41.4 31H18.1V15.4h23.3zm-22.5-.8h21.7v-14H18.9z" class="st3"/><path d="M19.5 37.5h20.6c1.1 0 2 .9 2 2v15.7H17.4V39.5c0-1 .9-2 2.1-2" class="st2"/><path d="M42.4 55.6H17.1V39.7c0-1.4 1.1-2.6 2.6-2.6h20.2c1.4 0 2.6 1.1 2.6 2.6zm-24.6-.7h23.9V39.7c0-.9-.8-1.8-1.8-1.8H19.6c-.9 0-1.8.8-1.8 1.8z" class="st3"/><path d="M33.3 19.3h3.9v7.8h-3.9zM12.7 49.2H15v2.3h-2.3zm32.3 0h2.3v2.3H45z" style="fill:#fff"/></svg>