<svg xmlns="http://www.w3.org/2000/svg" xml:space="preserve" id="图层_1" x="0" y="0" version="1.1" viewBox="0 0 64 64"><style>.st2{fill:#7fbfff}.st3{fill:#cae7ff}</style><path d="M44.9 9.1H10.8c-.9 0-1.6.7-1.6 1.6v42.5c0 .9.7 1.6 1.6 1.6h42.5c.9 0 1.6-.7 1.6-1.6V19.1z" style="fill:#006bc2"/><path d="M53.2 55.3H10.8c-1.1 0-2.1-.9-2.1-2.1V10.8c0-1.1.9-2.1 2.1-2.1h34.3l10.2 10.2v34.3c0 1.2-.9 2.1-2.1 2.1M10.8 9.6c-.7 0-1.2.5-1.2 1.2v42.5c0 .7.5 1.2 1.2 1.2h42.5c.7 0 1.2-.5 1.2-1.2v-34l-9.7-9.7z" class="st3"/><path d="M18.9 9.1h25.7v17.2H18.9z" class="st2"/><path d="M45.1 26.7H18.5v-18h26.6zm-25.7-.8h24.8V9.6H19.4z" class="st3"/><path d="M20.1 34.3H44c1.3 0 2.3 1.1 2.3 2.3v18.2H17.7V36.7c0-1.3 1.1-2.4 2.4-2.4" class="st2"/><path d="M46.7 55.3H17.3V36.9c0-1.6 1.3-3 3-3h23.5c1.6 0 3 1.3 3 3zm-28.5-.9h27.7V36.9c0-1.1-.9-2.1-2.1-2.1H20.2c-1.1 0-2.1.9-2.1 2.1v17.5z" class="st3"/><path d="M36.2 13.2h4.5v9.1h-4.5zM12.3 47.9H15v2.7h-2.7zm37.4 0h2.7v2.7h-2.7z" style="fill:#fff"/></svg>