<svg xmlns="http://www.w3.org/2000/svg" xml:space="preserve" id="图层_1" x="0" y="0" version="1.1" viewBox="0 0 64 64"><style>.st2{fill:#aaa}.st3{fill:#d3d3d3}.st4{fill:#606060}.st7{fill:#fff}</style><path d="M40.9 3.5H6.8c-.9 0-1.6.7-1.6 1.6v42.4c0 .9.7 1.6 1.6 1.6h42.4c.9 0 1.6-.7 1.6-1.6V13.4z" class="st4"/><path d="M49.2 49.6H6.8c-1.1 0-2.1-.9-2.1-2.1V5c0-1.1.9-2.1 2.1-2.1h34.3l10.2 10.2v34.3c0 1.3-.9 2.2-2.1 2.2M6.8 3.9c-.7 0-1.2.5-1.2 1.2v42.4c0 .6.5 1.2 1.2 1.2h42.4c.7 0 1.2-.5 1.2-1.2V13.6l-9.7-9.7z" class="st3"/><path d="M15 3.5h25.7v17.2H15z" class="st2"/><path d="M41.1 21.1H14.5v-18h26.6zm-25.7-.9h24.8V3.9H15.4z" class="st3"/><path d="M16.1 28.7H40c1.3 0 2.3 1 2.3 2.3v18.2H13.8V30.9c0-1.2 1-2.2 2.3-2.2" class="st2"/><path d="M42.7 49.6H13.3V31.2c0-1.6 1.3-3 3-3h23.5c1.6 0 3 1.3 3 3zm-28.5-.9h27.6V31.2c0-1.2-.9-2.1-2.1-2.1H16.2c-1.2 0-2.1.9-2.1 2.1z" class="st3"/><path d="M32.2 7.5h4.5v9.1h-4.5zM8.3 42.2H11v2.7H8.3zm11.2-8.6h17.1v1.8H19.5zm0 3.3h11.2v1.8H19.5zm0 3.3h7.1V42h-7.1z" class="st7"/><path d="m34.4 39.9 4.2 7.7 14.8 12.2c1.3 1.1 3.3 1.1 4.5-.1 1.3-1.4 1.2-3.5-.2-4.7L42.8 42.7z" class="st4"/><path d="M55.7 61.1c-.9 0-1.8-.3-2.5-.9L38.3 47.9v-.1l-4.7-8.6 9.5 3.1L58 54.7c.8.7 1.3 1.6 1.3 2.6.1 1-.3 2-1.1 2.8-.7.6-1.6 1-2.5 1M39 47.3l14.7 12.2c1.2 1 2.9.9 3.8-.1.6-.6.8-1.3.8-2.1s-.4-1.5-1-2L42.4 42.9l-7.2-2.3z" class="st7"/></svg>