<svg xmlns="http://www.w3.org/2000/svg" xml:space="preserve" id="图层_1" x="0" y="0" version="1.1" viewBox="0 0 64 64"><style>.st2{fill:#7fbfff}.st3{fill:#cae7ff}.st4{fill:#006bc2}.st5{fill:#fff}</style><path d="M41.9 4.2H7.8c-.9 0-1.6.7-1.6 1.6v42.4c0 .9.7 1.6 1.6 1.6h42.4c.9 0 1.6-.7 1.6-1.6v-34z" class="st4"/><path d="M50.2 50.3H7.8c-1.1 0-2.1-.9-2.1-2.1V5.8c0-1.1.9-2.1 2.1-2.1h34.3L52.3 14v34.3c0 1.1-.9 2-2.1 2M7.8 4.7c-.7 0-1.2.5-1.2 1.2v42.4c0 .6.5 1.2 1.2 1.2h42.4c.7 0 1.2-.5 1.2-1.2V14.4l-9.7-9.7z" class="st3"/><path d="M16 4.2h25.6v17.2H16z" class="st2"/><path d="M42.1 21.8H15.5v-18h26.6zm-25.7-.9h24.8V4.7H16.4z" class="st3"/><path d="M16.2 29.4h25.7c.8 0 1.4.6 1.4 1.4v19.1H14.8V30.8c0-.8.6-1.4 1.4-1.4" class="st2"/><path d="M43.7 50.3H14.3V31.9c0-1.6 1.3-3 3-3h23.5c1.6 0 3 1.3 3 3zm-28.5-.9h27.6V31.9c0-1.2-.9-2.1-2.1-2.1H17.3c-1.2 0-2.1.9-2.1 2.1z" class="st3"/><path d="M33.2 8.3h4.5v9.1h-4.5zM9.3 42.9H12v2.7H9.3zm11.2-8.6h17.1v1.8H20.5zm0 3.3h11.2v1.8H20.5zm0 3.3h7.1v1.8h-7.1z" class="st5"/><path d="m35.4 40.6 4.2 7.7 14.8 12.2c1.3 1.1 3.3 1.1 4.5-.1 1.3-1.4 1.2-3.5-.2-4.7L43.8 43.4z" class="st4"/><path d="M56.7 61.8c-.9 0-1.8-.3-2.5-.9L39.3 48.6v-.1l-4.7-8.6L44 43l14.9 12.4c.8.7 1.3 1.6 1.3 2.6.1 1-.3 2-1.1 2.8-.6.6-1.5 1-2.4 1M40 48l14.7 12.2c1.2 1 2.9.9 3.8-.1.6-.6.8-1.3.8-2.1s-.4-1.5-1-2L43.5 43.8l-7.2-2.3z" class="st5"/></svg>