<svg xmlns="http://www.w3.org/2000/svg" xml:space="preserve" id="图层_1" x="0" y="0" version="1.1" viewBox="0 0 64 64"><style>.st2{fill:#aaa}.st3{fill:#d3d3d3}.st4{fill:#606060}</style><path d="M58.9 58.2H6.7V6.1h1.1v51.1h51.1z" class="st4"/><path d="M8.2 48.4h8.4v8.4H8.2z" class="st2"/><path d="M16.9 57.2H7.7V48h9.2zm-8.3-.8h7.6v-7.6H8.6z" class="st3"/><path d="M16.5 48.4h8.4v8.4h-8.4z" class="st2"/><path d="M25.3 57.2h-9.2V48h9.2zm-8.4-.8h7.6v-7.6h-7.6z" class="st3"/><path d="M24.9 48.4h8.4v8.4h-8.4z" class="st2"/><path d="M33.7 57.2h-9.2V48h9.2zm-8.4-.8h7.6v-7.6h-7.6z" class="st3"/><path d="M33.3 48.4h8.4v8.4h-8.4z" class="st2"/><path d="M42.1 57.2h-9.2V48h9.2zm-8.4-.8h7.6v-7.6h-7.6z" class="st3"/><path d="M41.7 48.4h8.4v8.4h-8.4z" class="st2"/><path d="M50.5 57.2h-9.2V48h9.2zm-8.4-.8h7.6v-7.6h-7.6z" class="st3"/><path d="M8.2 40h8.4v8.4H8.2z" class="st2"/><path d="M16.9 48.8H7.7v-9.2h9.2zM8.6 48h7.6v-7.6H8.6z" class="st3"/><path d="M16.5 40h8.4v8.4h-8.4z" class="st2"/><path d="M25.3 48.8h-9.2v-9.2h9.2zm-8.4-.8h7.6v-7.6h-7.6z" class="st3"/><path d="M24.9 40h8.4v8.4h-8.4z" class="st2"/><path d="M33.7 48.8h-9.2v-9.2h9.2zm-8.4-.8h7.6v-7.6h-7.6z" class="st3"/><path d="M33.3 40h8.4v8.4h-8.4z" class="st2"/><path d="M42.1 48.8h-9.2v-9.2h9.2zm-8.4-.8h7.6v-7.6h-7.6z" class="st3"/><path d="M8.2 31.6h8.4V40H8.2z" class="st2"/><path d="M16.9 40.4H7.7v-9.2h9.2zm-8.3-.8h7.6V32H8.6z" class="st3"/><path d="M16.5 31.6h8.4V40h-8.4z" class="st2"/><path d="M25.3 40.4h-9.2v-9.2h9.2zm-8.4-.8h7.6V32h-7.6z" class="st3"/><path d="M24.9 31.6h8.4V40h-8.4z" class="st2"/><path d="M33.7 40.4h-9.2v-9.2h9.2zm-8.4-.8h7.6V32h-7.6z" class="st3"/><path d="M8.2 23.2h8.4v8.4H8.2z" class="st2"/><path d="M16.9 32H7.7v-9.2h9.2zm-8.3-.8h7.6v-7.6H8.6z" class="st3"/><path d="M16.5 23.2h8.4v8.4h-8.4z" class="st2"/><path d="M25.3 32h-9.2v-9.2h9.2zm-8.4-.8h7.6v-7.6h-7.6z" class="st3"/><path d="M8.2 14.9h8.4v8.4H8.2z" class="st2"/><path d="M16.9 23.6H7.7v-9.2h9.2zm-8.3-.8h7.6v-7.6H8.6z" class="st3"/><path d="M50.1 48.4h8.4v8.4h-8.4z" class="st4"/><path d="M58.9 57.2h-9.2V48h9.2zm-8.4-.8h7.6v-7.6h-7.6z" class="st3"/><path d="M41.7 40h8.4v8.4h-8.4z" class="st4"/><path d="M50.5 48.8h-9.2v-9.2h9.2zm-8.4-.8h7.6v-7.6h-7.6z" class="st3"/><path d="M50.1 40h8.4v8.4h-8.4z" class="st4"/><path d="M58.9 48.8h-9.2v-9.2h9.2zm-8.4-.8h7.6v-7.6h-7.6z" class="st3"/><path d="M33.3 31.6h8.4V40h-8.4z" class="st4"/><path d="M42.1 40.4h-9.2v-9.2h9.2zm-8.4-.8h7.6V32h-7.6z" class="st3"/><path d="M41.7 31.6h8.4V40h-8.4z" class="st4"/><path d="M50.5 40.4h-9.2v-9.2h9.2zm-8.4-.8h7.6V32h-7.6z" class="st3"/><path d="M50.1 31.6h8.4V40h-8.4z" class="st4"/><path d="M58.9 40.4h-9.2v-9.2h9.2zm-8.4-.8h7.6V32h-7.6z" class="st3"/><path d="M24.9 23.2h8.4v8.4h-8.4z" class="st4"/><path d="M33.7 32h-9.2v-9.2h9.2zm-8.4-.8h7.6v-7.6h-7.6z" class="st3"/><path d="M33.3 23.2h8.4v8.4h-8.4z" class="st4"/><path d="M42.1 32h-9.2v-9.2h9.2zm-8.4-.8h7.6v-7.6h-7.6z" class="st3"/><path d="M41.7 23.2h8.4v8.4h-8.4z" class="st4"/><path d="M50.5 32h-9.2v-9.2h9.2zm-8.4-.8h7.6v-7.6h-7.6z" class="st3"/><path d="M50.1 23.2h8.4v8.4h-8.4z" class="st4"/><path d="M58.9 32h-9.2v-9.2h9.2zm-8.4-.8h7.6v-7.6h-7.6z" class="st3"/><path d="M16.5 14.9h8.4v8.4h-8.4z" class="st4"/><path d="M25.3 23.6h-9.2v-9.2h9.2zm-8.4-.8h7.6v-7.6h-7.6z" class="st3"/><path d="M24.9 14.9h8.4v8.4h-8.4z" class="st4"/><path d="M33.7 23.6h-9.2v-9.2h9.2zm-8.4-.8h7.6v-7.6h-7.6z" class="st3"/><path d="M33.3 14.9h8.4v8.4h-8.4z" class="st4"/><path d="M42.1 23.6h-9.2v-9.2h9.2zm-8.4-.8h7.6v-7.6h-7.6z" class="st3"/><path d="M41.7 14.9h8.4v8.4h-8.4z" class="st4"/><path d="M50.5 23.6h-9.2v-9.2h9.2zm-8.4-.8h7.6v-7.6h-7.6z" class="st3"/><path d="M50.1 14.9h8.4v8.4h-8.4z" class="st4"/><path d="M58.9 23.6h-9.2v-9.2h9.2zm-8.4-.8h7.6v-7.6h-7.6z" class="st3"/><path d="M8.2 6.5h8.4v8.4H8.2z" class="st4"/><path d="M16.9 15.3H7.7V6.1h9.2zm-8.3-.8h7.6V6.9H8.6z" class="st3"/><path d="M16.5 6.5h8.4v8.4h-8.4z" class="st4"/><path d="M25.3 15.3h-9.2V6.1h9.2zm-8.4-.8h7.6V6.9h-7.6z" class="st3"/><path d="M24.9 6.5h8.4v8.4h-8.4z" class="st4"/><path d="M33.7 15.3h-9.2V6.1h9.2zm-8.4-.8h7.6V6.9h-7.6z" class="st3"/><path d="M33.3 6.5h8.4v8.4h-8.4z" class="st4"/><path d="M42.1 15.3h-9.2V6.1h9.2zm-8.4-.8h7.6V6.9h-7.6z" class="st3"/><path d="M41.7 6.5h8.4v8.4h-8.4z" class="st4"/><path d="M50.5 15.3h-9.2V6.1h9.2zm-8.4-.8h7.6V6.9h-7.6z" class="st3"/><path d="M50.1 6.5h8.4v8.4h-8.4z" class="st4"/><path d="M58.9 15.3h-9.2V6.1h9.2zm-8.4-.8h7.6V6.9h-7.6z" class="st3"/></svg>