<svg xmlns="http://www.w3.org/2000/svg" xml:space="preserve" id="图层_1" x="0" y="0" version="1.1" viewBox="0 0 64 64"><style>.st2{fill:#7fbfff}.st3{fill:#cae7ff}.st4{fill:#006bc2}</style><path d="M58.6 58.1H6.4V6h1.1v51.1h51.1z" class="st4"/><path d="M7.9 48.3h8.4v8.4H7.9z" class="st2"/><path d="M16.6 57.1H7.4v-9.2h9.2zm-8.3-.8h7.6v-7.6H8.3z" class="st3"/><path d="M16.2 48.3h8.4v8.4h-8.4z" class="st2"/><path d="M25 57.1h-9.2v-9.2H25zm-8.4-.8h7.6v-7.6h-7.6z" class="st3"/><path d="M24.6 48.3H33v8.4h-8.4z" class="st2"/><path d="M33.4 57.1h-9.2v-9.2h9.2zm-8.4-.8h7.6v-7.6H25z" class="st3"/><path d="M33 48.3h8.4v8.4H33z" class="st2"/><path d="M41.8 57.1h-9.2v-9.2h9.2zm-8.4-.8H41v-7.6h-7.6z" class="st3"/><path d="M41.4 48.3h8.4v8.4h-8.4z" class="st2"/><path d="M50.2 57.1H41v-9.2h9.2zm-8.4-.8h7.6v-7.6h-7.6z" class="st3"/><path d="M7.9 39.9h8.4v8.4H7.9z" class="st2"/><path d="M16.6 48.7H7.4v-9.2h9.2zm-8.3-.8h7.6v-7.6H8.3z" class="st3"/><path d="M16.2 39.9h8.4v8.4h-8.4z" class="st2"/><path d="M25 48.7h-9.2v-9.2H25zm-8.4-.8h7.6v-7.6h-7.6z" class="st3"/><path d="M24.6 39.9H33v8.4h-8.4z" class="st2"/><path d="M33.4 48.7h-9.2v-9.2h9.2zm-8.4-.8h7.6v-7.6H25z" class="st3"/><path d="M33 39.9h8.4v8.4H33z" class="st2"/><path d="M41.8 48.7h-9.2v-9.2h9.2zm-8.4-.8H41v-7.6h-7.6z" class="st3"/><path d="M7.9 31.5h8.4v8.4H7.9z" class="st2"/><path d="M16.6 40.3H7.4v-9.2h9.2zm-8.3-.8h7.6v-7.6H8.3z" class="st3"/><path d="M16.2 31.5h8.4v8.4h-8.4z" class="st2"/><path d="M25 40.3h-9.2v-9.2H25zm-8.4-.8h7.6v-7.6h-7.6z" class="st3"/><path d="M24.6 31.5H33v8.4h-8.4z" class="st2"/><path d="M33.4 40.3h-9.2v-9.2h9.2zm-8.4-.8h7.6v-7.6H25z" class="st3"/><path d="M7.9 23.1h8.4v8.4H7.9z" class="st2"/><path d="M16.6 31.9H7.4v-9.2h9.2zm-8.3-.8h7.6v-7.6H8.3z" class="st3"/><path d="M16.2 23.1h8.4v8.4h-8.4z" class="st2"/><path d="M25 31.9h-9.2v-9.2H25zm-8.4-.8h7.6v-7.6h-7.6z" class="st3"/><path d="M7.9 14.8h8.4v8.4H7.9z" class="st2"/><path d="M16.6 23.5H7.4v-9.2h9.2zm-8.3-.8h7.6v-7.6H8.3z" class="st3"/><path d="M49.8 48.3h8.4v8.4h-8.4z" class="st4"/><path d="M58.6 57.1h-9.2v-9.2h9.2zm-8.4-.8h7.6v-7.6h-7.6z" class="st3"/><path d="M41.4 39.9h8.4v8.4h-8.4z" class="st4"/><path d="M50.2 48.7H41v-9.2h9.2zm-8.4-.8h7.6v-7.6h-7.6z" class="st3"/><path d="M49.8 39.9h8.4v8.4h-8.4z" class="st4"/><path d="M58.6 48.7h-9.2v-9.2h9.2zm-8.4-.8h7.6v-7.6h-7.6z" class="st3"/><path d="M33 31.5h8.4v8.4H33z" class="st4"/><path d="M41.8 40.3h-9.2v-9.2h9.2zm-8.4-.8H41v-7.6h-7.6z" class="st3"/><path d="M41.4 31.5h8.4v8.4h-8.4z" class="st4"/><path d="M50.2 40.3H41v-9.2h9.2zm-8.4-.8h7.6v-7.6h-7.6z" class="st3"/><path d="M49.8 31.5h8.4v8.4h-8.4z" class="st4"/><path d="M58.6 40.3h-9.2v-9.2h9.2zm-8.4-.8h7.6v-7.6h-7.6z" class="st3"/><path d="M24.6 23.1H33v8.4h-8.4z" class="st4"/><path d="M33.4 31.9h-9.2v-9.2h9.2zm-8.4-.8h7.6v-7.6H25z" class="st3"/><path d="M33 23.1h8.4v8.4H33z" class="st4"/><path d="M41.8 31.9h-9.2v-9.2h9.2zm-8.4-.8H41v-7.6h-7.6z" class="st3"/><path d="M41.4 23.1h8.4v8.4h-8.4z" class="st4"/><path d="M50.2 31.9H41v-9.2h9.2zm-8.4-.8h7.6v-7.6h-7.6z" class="st3"/><path d="M49.8 23.1h8.4v8.4h-8.4z" class="st4"/><path d="M58.6 31.9h-9.2v-9.2h9.2zm-8.4-.8h7.6v-7.6h-7.6z" class="st3"/><path d="M16.2 14.8h8.4v8.4h-8.4z" class="st4"/><path d="M25 23.5h-9.2v-9.2H25zm-8.4-.8h7.6v-7.6h-7.6z" class="st3"/><path d="M24.6 14.8H33v8.4h-8.4z" class="st4"/><path d="M33.4 23.5h-9.2v-9.2h9.2zm-8.4-.8h7.6v-7.6H25z" class="st3"/><path d="M33 14.8h8.4v8.4H33z" class="st4"/><path d="M41.8 23.5h-9.2v-9.2h9.2zm-8.4-.8H41v-7.6h-7.6z" class="st3"/><path d="M41.4 14.8h8.4v8.4h-8.4z" class="st4"/><path d="M50.2 23.5H41v-9.2h9.2zm-8.4-.8h7.6v-7.6h-7.6z" class="st3"/><path d="M49.8 14.8h8.4v8.4h-8.4z" class="st4"/><path d="M58.6 23.5h-9.2v-9.2h9.2zm-8.4-.8h7.6v-7.6h-7.6z" class="st3"/><path d="M7.9 6.4h8.4v8.4H7.9z" class="st4"/><path d="M16.6 15.2H7.4V6h9.2zm-8.3-.8h7.6V6.8H8.3z" class="st3"/><path d="M16.2 6.4h8.4v8.4h-8.4z" class="st4"/><path d="M25 15.2h-9.2V6H25zm-8.4-.8h7.6V6.8h-7.6z" class="st3"/><path d="M24.6 6.4H33v8.4h-8.4z" class="st4"/><path d="M33.4 15.2h-9.2V6h9.2zm-8.4-.8h7.6V6.8H25z" class="st3"/><path d="M33 6.4h8.4v8.4H33z" class="st4"/><path d="M41.8 15.2h-9.2V6h9.2zm-8.4-.8H41V6.8h-7.6z" class="st3"/><path d="M41.4 6.4h8.4v8.4h-8.4z" class="st4"/><path d="M50.2 15.2H41V6h9.2zm-8.4-.8h7.6V6.8h-7.6z" class="st3"/><path d="M49.8 6.4h8.4v8.4h-8.4z" class="st4"/><path d="M58.6 15.2h-9.2V6h9.2zm-8.4-.8h7.6V6.8h-7.6z" class="st3"/></svg>