<svg xmlns="http://www.w3.org/2000/svg" xml:space="preserve" viewBox="0 0 64 64"><path d="m22.3 17.1.5-.5-4.8-4.7c-.3-.3-.7-.1-.8.3l-4.6 17c-.3 1.1.7 2.1 1.8 1.8l17-4.6c.4-.1.6-.6.3-.8l-4-4-.3.4c3.6-3.6 9.5-4.2 13.4-1 4.5 3.7 4.8 10.5.8 14.5L30.3 46.9c-.4.4-.4 1.1 0 1.4l3.6 3.6c.4.4 1.1.4 1.4 0l11.4-11.4c6.9-6.9 6.6-18.2-.8-24.7-6.9-5.9-17.2-5.1-23.6 1.3" style="fill:#006bc2"/><path d="M46.9 40.8 35.5 52.2c-.6.6-1.6.6-2.1 0l-3.6-3.6c-.6-.6-.6-1.6 0-2.1l11.4-11.4c1.8-1.8 2.8-4.4 2.7-7.1s-1.3-5-3.4-6.8c-3.7-3-9.3-2.6-12.8.9l.6-.6 3.8 3.8c.2.2.3.6.2.9-.1.4-.4.6-.6.6l-17.1 4.5c-.7.1-1.4 0-1.9-.5s-.7-1.1-.5-1.8l4.6-17q.15-.6.6-.6c.45 0 .7 0 .9.2l4.4 4.4-.8.8c6.6-6.6 17.3-7.2 24.1-1.2 3.7 3.3 5.8 7.6 5.9 12.4.2 4.8-1.6 9.5-5 12.8m-16.4 6.4c-.2.2-.2.6 0 .8l3.6 3.6c.2.2.6.2.8 0l11.4-11.4c3.2-3.2 4.9-7.6 4.8-12.2-.2-4.6-2.2-8.8-5.7-11.9-6.5-5.7-16.5-5.1-22.8 1.2l.1-.1-5-5L13 29.3c-.1.4 0 .7.3 1s.6.4 1 .3l17-4.6-4.2-4.4-.1.1c3.8-3.8 10-4.3 14-1 2.3 1.8 3.6 4.5 3.7 7.4.1 2.8-.9 5.7-3 7.8z" style="fill:#cae7ff"/></svg>