<svg xmlns="http://www.w3.org/2000/svg" xml:space="preserve" id="图层_1" x="0" y="0" version="1.1" viewBox="0 0 64 64"><style>.st5{fill:#fff}</style><path d="M32 55.6C19 55.6 8.4 45 8.4 32S19 8.4 32 8.4 55.6 19 55.6 32 45 55.6 32 55.6m0-41.5c-9.9 0-17.9 8-17.9 17.9s8 17.9 17.9 17.9 17.9-8 17.9-17.9-8-17.9-17.9-17.9" class="st5"/><path d="M29.1 26.3h5.7v19.3h-5.7zm0-8.1h5.7v5.7h-5.7z" class="st5"/><path d="M116.4 55.6c-13 0-23.6-10.6-23.6-23.6s10.6-23.6 23.6-23.6S140 19 140 32s-10.6 23.6-23.6 23.6m0-41.5c-9.9 0-17.9 8-17.9 17.9s8 17.9 17.9 17.9 17.9-8 17.9-17.9-8-17.9-17.9-17.9" style="fill:#333"/><circle cx="116.4" cy="32" r="20.1" style="fill:#1aa1e2"/><path d="M116.4 26.3v19.3" style="fill:none;stroke:#fff;stroke-width:5.7;stroke-miterlimit:10"/><path d="M113.5 18.2h5.7v5.7h-5.7z" class="st5"/></svg>