<svg xmlns="http://www.w3.org/2000/svg" xml:space="preserve" id="图层_1" x="0" y="0" version="1.1" viewBox="0 0 64 64"><style>.st3{fill:#cae7ff}.st4{fill:#006bc2}.st5{fill:#fff}</style><path d="M27.8 7.7h7.9v5h-7.9z" class="st4"/><path d="M35.2 8.1v4.1h-7V8.1zm.9-.8h-8.7v5.9h8.7z" class="st3"/><path d="M24.7 7.4c-.6 0-1.1-.5-1.1-1.1V4.1c0-.6.5-1.1 1.1-1.1h14c.6 0 1.1.5 1.1 1.1v2.2c0 .6-.5 1.1-1.1 1.1z" class="st4"/><path d="M38.8 3.5c.3 0 .6.3.6.6v2.2c0 .3-.3.6-.6.6h-14c-.3 0-.6-.3-.6-.6V4.1c0-.3.3-.6.6-.6zm0-.9h-14c-.8 0-1.5.7-1.5 1.5v2.2c0 .8.7 1.5 1.5 1.5h14c.8 0 1.5-.7 1.5-1.5V4.1c0-.8-.7-1.5-1.5-1.5" class="st3"/><circle cx="31.8" cy="36.1" r="24.8" style="fill:#7fbfff"/><path d="M31.7 61.4C17.8 61.4 6.5 50 6.5 36.1s11.3-25.3 25.3-25.3C45.7 10.9 57 22.2 57 36.1S45.7 61.4 31.7 61.4m0-49.6c-13.4 0-24.4 10.9-24.4 24.4s10.9 24.4 24.4 24.4 24.4-10.9 24.4-24.4-10.9-24.4-24.4-24.4" class="st3"/><path d="M30.9 13.5h1.8v3.1h-1.8zm-5.884.988 1.74-.465.8 2.995-1.739.465zm-5.389 2.492 1.56-.9 1.548 2.687-1.56.898zm-4.462 3.79 1.273-1.273 2.192 2.192-1.273 1.273zm-3.485 4.838.9-1.559 2.685 1.55-.9 1.559zm-2.012 5.559.466-1.738 2.994.802-.465 1.739zM9.2 35.2h3.1V37H9.2zm.53 5.925 2.994-.8.465 1.74-2.996.8zm2.006 5.468 2.685-1.55.9 1.56-2.685 1.549zm3.393 4.883 2.192-2.192 1.273 1.272-2.192 2.192zm4.527 3.718 1.55-2.685 1.559.9-1.55 2.685zm5.329 2.554.801-2.995 1.74.466-.802 2.994zM30.9 55.6h1.8v3.1h-1.8zm5.03-.414 1.739-.466.802 2.994-1.738.466zm4.82-1.745 1.558-.9 1.55 2.685-1.559.9zm4.093-2.924 1.273-1.273 2.192 2.193-1.273 1.272zm3.362-3.897.9-1.56 2.684 1.551-.9 1.559zm2.13-4.616.466-1.739 2.994.802-.465 1.739zM51.2 35.2h3.1V37h-3.1zm-.871-4.964 2.995-.8.464 1.74-2.995.799zm-2.169-4.63 2.685-1.55.9 1.56-2.685 1.55zm-3.21-3.88 2.192-2.192 1.273 1.273-2.192 2.192zm-4.249-2.918 1.551-2.684 1.559.9-1.551 2.684zm-4.786-1.701.801-2.994 1.739.465-.802 2.995z" class="st5"/><circle cx="31.8" cy="36.1" r="16" class="st4"/><path d="M31.8 20.6c8.6 0 15.5 7 15.5 15.5s-7 15.5-15.5 15.5-15.5-7-15.5-15.5 6.9-15.5 15.5-15.5m0-.9c-9.1 0-16.4 7.3-16.4 16.4s7.3 16.4 16.4 16.4 16.4-7.3 16.4-16.4-7.4-16.4-16.4-16.4" class="st3"/><path d="M38 36.3h-5.3l2.7-10.7-10 10.7h5.3L28 46.9z" class="st5"/></svg>