<svg xmlns="http://www.w3.org/2000/svg" xml:space="preserve" id="图层_1" x="0" y="0" version="1.1" viewBox="0 0 64 64"><style>.st3{fill:#cae7ff}</style><path d="m23.7 38.6 1.9-4.4h8c4.6 0 8.4-3.8 8.4-8.4s-3.8-8.4-8.4-8.4H19c-4.6 0-8.4 3.8-8.4 8.4 0 3.6 2.3 6.8 5.8 8l.4.1-1.4 4.1-.4-.1c-5.3-1.7-8.8-6.6-8.8-12.1 0-7 5.7-12.7 12.7-12.7h14.6c7 0 12.7 5.7 12.7 12.7s-5.7 12.7-12.7 12.7z" style="fill:#7fbfff"/><path d="M33.6 13.4c6.8 0 12.3 5.6 12.3 12.4s-5.5 12.3-12.3 12.3h-9.3l1.6-3.6h7.7c4.8 0 8.8-3.9 8.8-8.8 0-4.8-3.9-8.8-8.8-8.8H19c-4.8 0-8.8 3.9-8.8 8.8 0 3.8 2.4 7.2 6.1 8.3l-1.1 3.4c-5.1-1.7-8.5-6.4-8.5-11.7 0-6.8 5.5-12.3 12.3-12.3zm0-.7H19c-7.2 0-13.1 5.9-13.1 13.1 0 5.7 3.6 10.7 9.1 12.5l.8.2.2-.8 1.1-3.4.2-.8-.8-.2c-3.3-1.1-5.5-4.1-5.5-7.6 0-4.4 3.6-8 8-8h14.6c4.4 0 8 3.6 8 8s-3.6 8-8 8h-8.3l-.2.5-1.6 3.6-.5 1.1h10.5c7.2 0 13.1-5.9 13.1-13.1.1-7.2-5.8-13.1-13-13.1" class="st3"/><path d="M30.4 50.9c-7 0-12.8-5.7-12.8-12.8s5.7-12.8 12.8-12.8h10l-2 4.5h-8c-4.6 0-8.3 3.7-8.3 8.3s3.7 8.3 8.3 8.3H45c4.6 0 8.3-3.7 8.3-8.3 0-3.6-2.3-6.7-5.7-7.9l-.4-.1 1.4-4.2.4.1c5.2 1.8 8.7 6.6 8.7 12.1 0 7-5.7 12.8-12.8 12.8z" style="fill:#006bc2"/><path d="m39.7 25.8-1.6 3.6h-7.7c-4.8 0-8.8 3.9-8.8 8.8s3.9 8.8 8.8 8.8H45c4.8 0 8.8-3.9 8.8-8.8 0-3.8-2.4-7.1-6-8.3l1.1-3.4c5 1.7 8.4 6.4 8.4 11.7 0 6.8-5.5 12.3-12.3 12.3H30.4c-6.8 0-12.3-5.5-12.3-12.3s5.5-12.3 12.3-12.3h9.3m1.4-1H30.3c-7.3 0-13.2 5.9-13.2 13.2S23 51.3 30.3 51.3h14.6c7.3 0 13.2-5.9 13.2-13.2 0-5.7-3.6-10.7-9-12.5l-.8-.3-.3.8-1.1 3.4-.3.8.8.3c3.2 1.1 5.4 4.1 5.4 7.5 0 4.3-3.5 7.9-7.9 7.9H30.3c-4.3 0-7.9-3.5-7.9-7.9s3.5-7.9 7.9-7.9h8.3l.2-.5 1.6-3.6z" class="st3"/></svg>