<svg xmlns="http://www.w3.org/2000/svg" xml:space="preserve" id="图层_1" x="0" y="0" version="1.1" viewBox="0 0 64 64"><style>.st2{fill:#7fbfff}.st3{fill:#cae7ff}.st4{fill:#006bc2}.st5{fill:#fff}</style><path d="M44.8 44.9c3.1-3.3 4.9-7.6 4.9-12.2C49.7 22.9 41.8 15 32 15s-17.7 8-17.7 17.8c0 4.6 1.7 8.9 4.9 12.2l-7.3 7.3C6.8 47 4.1 40.1 4.1 32.8c0-15.4 12.5-28 28-28s28 12.5 28 28c0 7.3-2.8 14.2-7.9 19.4z" class="st4"/><path d="M32 5.3c15.2 0 27.5 12.3 27.5 27.5 0 7.1-2.6 13.7-7.4 18.8L45.5 45c3-3.3 4.7-7.6 4.7-12.2 0-10-8.1-18.1-18.1-18.1S14 22.8 14 32.8c0 4.5 1.7 8.8 4.7 12.2l-6.6 6.6c-4.8-5.1-7.4-11.8-7.4-18.8C4.5 17.6 16.8 5.3 32 5.3m0-.9C16.3 4.4 3.6 17.1 3.6 32.8c0 7.8 3.2 14.9 8.3 20.1l7.9-7.9c-3.1-3.1-5-7.4-5-12.2 0-9.5 7.7-17.2 17.2-17.2s17.2 7.7 17.2 17.2c0 4.8-1.9 9.1-5 12.2l7.9 7.9c5.1-5.1 8.3-12.2 8.3-20.1C60.4 17.1 47.7 4.4 32 4.4" class="st3"/><path d="m26.7 35.2 18.4-14.6L30.5 39z" class="st4"/><path d="m42.4 23.4-11.9 15-3.1-3.1zm5.4-5.5-6 4.8-15 11.9-.8.6.7.7 3.1 3.1.7.7.6-.8 11.9-15z" class="st3"/><path d="M41.9 52.7H22c-.5 0-1-.4-1-1V50c0-.5.4-1 1-1h19.9c.5 0 1 .4 1 1v1.8c0 .5-.4.9-1 .9" class="st2"/><path d="M41.2 53.2H22.8c-1.2 0-2.2-1-2.2-2.2v-.3c0-1.2 1-2.2 2.2-2.2h18.4c1.2 0 2.2 1 2.2 2.2v.3c-.1 1.2-1 2.2-2.2 2.2m-18.4-3.8c-.7 0-1.3.6-1.3 1.3v.3c0 .7.6 1.3 1.3 1.3h18.4c.7 0 1.3-.6 1.3-1.3v-.3c0-.7-.6-1.3-1.3-1.3z" class="st3"/><path d="M26.1 59.2H22c-.5 0-1-.4-1-1v-1.8c0-.5.4-1 1-1h4.1c.5 0 1 .4 1 1v1.8c0 .6-.4 1-1 1" class="st2"/><path d="M25.4 59.6h-2.6c-1.2 0-2.2-1-2.2-2.2v-.3c0-1.2 1-2.2 2.2-2.2h2.6c1.2 0 2.2 1 2.2 2.2v.3c0 1.3-1 2.2-2.2 2.2m-2.6-3.7c-.7 0-1.3.6-1.3 1.3v.3c0 .7.6 1.3 1.3 1.3h2.6c.7 0 1.3-.6 1.3-1.3v-.3c0-.7-.6-1.3-1.3-1.3z" class="st3"/><path d="M34 59.2h-4.1c-.5 0-1-.4-1-1v-1.8c0-.5.4-1 1-1H34c.5 0 1 .4 1 1v1.8c0 .6-.4 1-1 1" class="st2"/><path d="M33.3 59.6h-2.6c-1.2 0-2.2-1-2.2-2.2v-.3c0-1.2 1-2.2 2.2-2.2h2.6c1.2 0 2.2 1 2.2 2.2v.3c0 1.3-1 2.2-2.2 2.2m-2.6-3.7c-.7 0-1.3.6-1.3 1.3v.3c0 .7.6 1.3 1.3 1.3h2.6c.7 0 1.3-.6 1.3-1.3v-.3c0-.7-.6-1.3-1.3-1.3z" class="st3"/><path d="M41.9 59.2h-4.1c-.5 0-1-.4-1-1v-1.8c0-.5.4-1 1-1h4.1c.5 0 1 .4 1 1v1.8c0 .6-.4 1-1 1" class="st2"/><path d="M41.2 59.6h-2.6c-1.2 0-2.2-1-2.2-2.2v-.3c0-1.2 1-2.2 2.2-2.2h2.6c1.2 0 2.2 1 2.2 2.2v.3c-.1 1.3-1 2.2-2.2 2.2m-2.6-3.7c-.7 0-1.3.6-1.3 1.3v.3c0 .7.6 1.3 1.3 1.3h2.6c.7 0 1.3-.6 1.3-1.3v-.3c0-.7-.6-1.3-1.3-1.3z" class="st3"/><circle cx="32" cy="9.8" r="2" class="st5"/><circle cx="20.7" cy="12.8" r="2" class="st5"/><circle cx="12.4" cy="21.1" r="2" class="st5"/><circle cx="9.4" cy="32.4" r="2" class="st5"/><circle cx="54.6" cy="32.4" r="2" class="st5"/><circle cx="51.6" cy="21.1" r="2" class="st5"/><circle cx="43.3" cy="12.8" r="2" class="st5"/></svg>