<svg xmlns="http://www.w3.org/2000/svg" xml:space="preserve" id="图层_1" x="0" y="0" version="1.1" viewBox="0 0 64 64"><style>.st2{fill:#7fbfff}.st3{fill:#cae7ff}.st4{fill:#006bc2}</style><path d="M39.1 50.3h-3.6c-2.4 0-4.4-2-4.4-4.4V18.1c0-2.4 2-4.4 4.4-4.4h3.6v1.8h-3.6c-1.4 0-2.6 1.2-2.6 2.6V46c0 1.4 1.2 2.6 2.6 2.6h3.6z" class="st4"/><path d="M24.9 31.1h14.2v1.8H24.9zM20 37.2H6.2c-2.7 0-4.9-2.2-4.9-4.9v-.6c0-2.7 2.2-4.9 4.9-4.9H20c2.7 0 4.9 2.2 4.9 4.9v.6c0 2.7-2.2 4.9-4.9 4.9" class="st4"/><path d="M19.7 37.6H6.6C3.5 37.6 1 35.1 1 32s2.5-5.6 5.6-5.6h13.1c3.1 0 5.6 2.5 5.6 5.6s-2.5 5.6-5.6 5.6M6.6 27.2c-2.6 0-4.8 2.1-4.8 4.8s2.1 4.8 4.8 4.8h13.1c2.6 0 4.8-2.1 4.8-4.8s-2.1-4.8-4.8-4.8z" class="st3"/><path d="M57.7 19.8H44c-2.7 0-4.9-2.2-4.9-4.9v-.6c0-2.7 2.2-4.9 4.9-4.9h13.7c2.7 0 4.9 2.2 4.9 4.9v.6c0 2.7-2.2 4.9-4.9 4.9" class="st4"/><path d="M57.4 20.2H44.3c-3.1 0-5.6-2.5-5.6-5.6S41.2 9 44.3 9h13.1c3.1 0 5.6 2.5 5.6 5.6.1 3.1-2.5 5.6-5.6 5.6M44.3 9.8c-2.6 0-4.8 2.1-4.8 4.8 0 2.6 2.1 4.8 4.8 4.8h13.1c2.6 0 4.8-2.1 4.8-4.8 0-2.6-2.1-4.8-4.8-4.8z" class="st3"/><path d="M57.7 37.2H44c-2.7 0-4.9-2.2-4.9-4.9v-.6c0-2.7 2.2-4.9 4.9-4.9h13.7c2.7 0 4.9 2.2 4.9 4.9v.6c0 2.7-2.2 4.9-4.9 4.9" class="st2"/><path d="M57.4 37.6H44.3c-3.1 0-5.6-2.5-5.6-5.6s2.5-5.6 5.6-5.6h13.1c3.1 0 5.6 2.5 5.6 5.6s-2.5 5.6-5.6 5.6M44.3 27.2c-2.6 0-4.8 2.1-4.8 4.8s2.1 4.8 4.8 4.8h13.1c2.6 0 4.8-2.1 4.8-4.8s-2.1-4.8-4.8-4.8z" class="st3"/><path d="M57.7 54.6H44c-2.7 0-4.9-2.2-4.9-4.9v-.6c0-2.7 2.2-4.9 4.9-4.9h13.7c2.7 0 4.9 2.2 4.9 4.9v.6c0 2.7-2.2 4.9-4.9 4.9" class="st2"/><path d="M57.4 55.1H44.3c-3.1 0-5.6-2.5-5.6-5.6s2.5-5.6 5.6-5.6h13.1c3.1 0 5.6 2.5 5.6 5.6.1 3-2.5 5.6-5.6 5.6M44.3 44.6c-2.6 0-4.8 2.1-4.8 4.8 0 2.6 2.1 4.8 4.8 4.8h13.1c2.6 0 4.8-2.1 4.8-4.8 0-2.6-2.1-4.8-4.8-4.8z" class="st3"/></svg>