<svg xmlns="http://www.w3.org/2000/svg" xml:space="preserve" id="图层_1" x="0" y="0" version="1.1" viewBox="0 0 64 64"><style>.st5{fill:#fff}</style><path d="M53.6 16v39.9c0 1.9-1.5 3.4-3.4 3.4H14.7c-1.9 0-3.4-1.5-3.4-3.4V8.7c0-1.9 1.5-3.4 3.4-3.4h28.4z" style="fill:#606060"/><path d="M43.4 4.8H14.8c-2.2 0-3.9 1.7-3.9 3.9v47.2c0 2.2 1.7 3.9 3.9 3.9h35.5c2.2 0 3.9-1.7 3.9-3.9V15.8zm-28.6 54c-1.6 0-2.9-1.3-2.9-2.9V8.7c0-1.6 1.3-2.9 2.9-2.9H43l10.2 10.4v39.7c0 1.6-1.3 2.9-2.9 2.9z" style="fill:#d3d3d3"/><path d="M18.4 44.8c-.4-.1-.8-.2-1.1-.3l.4-2.1h1.5c.9 0 1.4-.4 1.6-1.3l2.5-14.3h-2.2l.4-2.5h2.2l.4-2.2q.3-1.65 1.2-2.7c.6-.7 1.6-1 2.9-1 .4 0 .8 0 1.3.1.4.1.8.2 1.1.3l-.4 2.1h-1.5c-.9 0-1.4.4-1.6 1.3l-.4 2.2h2.9l-.4 2.5h-2.9l-2.5 14.4q-.3 1.65-1.2 2.7c-.6.7-1.6 1-2.9 1-.4-.1-.8-.1-1.3-.2" class="st5"/><path d="M27.3 39.2c-.5-1.2-.7-2.6-.7-4.1s.2-2.9.7-4.1 1.2-2.4 2.2-3.4l1.2 1.5c-.7.8-1.2 1.7-1.6 2.7-.3 1-.5 2.1-.5 3.3s.2 2.3.5 3.3c.4 1 .9 1.9 1.6 2.7l-1.2 1.5c-.9-1-1.7-2.1-2.2-3.4" class="st5"/><path d="m34.5 34.9-3.6-5.4h3.5l2 3.3h.1l2.1-3.3h3.3l-3.7 5.3 3.9 5.8h-3.5L36.3 37h-.1l-2.3 3.7h-3.3z" class="st5"/><path d="M41.9 41.1c.7-.8 1.2-1.7 1.6-2.7s.5-2.1.5-3.3-.2-2.3-.5-3.3-.9-1.9-1.6-2.7l1.2-1.5c1 1 1.7 2.1 2.2 3.4.5 1.2.7 2.6.7 4.1s-.2 2.9-.7 4.1-1.2 2.4-2.2 3.4z" class="st5"/></svg>