<svg xmlns="http://www.w3.org/2000/svg" xml:space="preserve" viewBox="0 0 64 64"><path d="M53.4 36.8v-9.1h-4.8c-.4-1.3-.9-2.5-1.5-3.7l3.4-3.4-6.4-6.4-3.4 3.4c-1.2-.7-2.4-1.2-3.7-1.5v-4.8h-9v4.8c-1.3.4-2.5.9-3.7 1.5l-3.4-3.4-6.4 6.4 3.4 3.4c-.7 1.2-1.2 2.4-1.5 3.7h-4.8v9.1h4.8c.4 1.3.9 2.5 1.5 3.7l-3.4 3.4 6.4 6.4 3.4-3.4c1.2.7 2.4 1.2 3.7 1.5v4.8h9v-4.8c1.3-.4 2.5-.9 3.7-1.5l3.4 3.4 6.4-6.4-3.4-3.4c.7-1.2 1.2-2.4 1.5-3.7zM32.5 41c-4.8 0-8.8-3.9-8.8-8.8 0-4.8 3.9-8.8 8.8-8.8s8.8 3.9 8.8 8.8-4 8.8-8.8 8.8" style="fill:#006bc2"/><path d="M37.5 53.7h-10v-4.9c-1.1-.3-2.1-.8-3.1-1.3L20.9 51l-7.1-7.1 3.5-3.5c-.5-1-1-2-1.3-3.1h-4.9v-10H16c.3-1.1.8-2.1 1.3-3.1l-3.5-3.5 7.1-7.1 3.5 3.5c1-.5 2-1 3.1-1.3v-4.9h10v4.9c1.1.3 2.1.8 3.1 1.3l3.5-3.5 7.1 7.1-3.5 3.5c.5 1 1 2 1.3 3.1h4.9v10.1H49c-.3 1.1-.8 2.1-1.3 3.1l3.5 3.5-7.1 7-3.5-3.5c-1 .5-2 1-3.1 1.3zm-9-1h8V48l.4-.1q1.95-.6 3.6-1.5l.3-.2 3.3 3.3 5.7-5.7-3.3-3.3.2-.3q.9-1.65 1.5-3.6l.1-.4H53v-8.1h-4.7l-.1-.4q-.6-1.95-1.5-3.6l-.2-.1 3.3-3.3-5.7-5.7-3.3 3.3-.3-.2q-1.65-.9-3.6-1.5l-.4-.1v-4.7h-8v4.7l-.4.1q-1.95.6-3.6 1.5l-.3.2-3.3-3.3-5.7 5.7 3.3 3.3-.2.3q-.9 1.65-1.5 3.6l-.1.4H12v8.1h4.7l.1.4q.6 1.95 1.5 3.6l.2.3-3.3 3.3 5.7 5.7 3.3-3.3.3.2q1.65.9 3.6 1.5l.4.1zm4-11.2c-5.1 0-9.3-4.2-9.3-9.3s4.2-9.3 9.3-9.3 9.3 4.2 9.3 9.3-4.2 9.3-9.3 9.3m0-17.5c-4.6 0-8.3 3.7-8.3 8.3s3.7 8.3 8.3 8.3c4.5 0 8.3-3.7 8.3-8.3S37.1 24 32.5 24" style="fill:#cae7ff"/></svg>