<svg xmlns="http://www.w3.org/2000/svg" xml:space="preserve" id="图层_1" x="0" y="0" version="1.1" viewBox="0 0 64 64"><style>.st10{fill:#d3d3d3}</style><path d="M53 16H30.1l-2-2.8c-.4-.9-1.2-1.3-2-1.3H12c-1.3 0-2.3 1.3-2.3 3.1v35.2c0 1.3 1.1 2.3 2.3 2.3h41c1.3 0 2.3-1.1 2.3-2.3V18.5c0-1.5-1-2.5-2.3-2.5z" style="fill:#aaa;stroke:#d3d3d3;stroke-miterlimit:10"/><path d="M26.1 11.4H12c-1.6 0-2.8 1.5-2.8 3.6v35.3c0 1.6 1.3 2.8 2.8 2.8h41c1.6 0 2.8-1.3 2.8-2.8V18.5c0-1.7-1.2-2.9-2.8-2.9H30.3L28.5 13c-.5-1-1.4-1.6-2.4-1.6M12 52.1c-.9 0-1.8-.7-1.8-1.8V15c0-1.5.8-2.6 1.8-2.6h14.1c.6 0 1.2.4 1.6 1.1l2.1 3H53c1.1 0 1.8.8 1.8 1.9v31.8c0 .9-.7 1.8-1.8 1.8H12z" class="st10"/><path d="M12.1 21h40.8c1.3 0 2.4 1.1 2.4 2.4v26.8c0 1.3-1.1 2.4-2.4 2.4H12.1c-1.3 0-2.4-1.1-2.4-2.4V23.4c0-1.3 1.1-2.4 2.4-2.4z" style="fill:#606060;stroke:#d3d3d3;stroke-miterlimit:10"/><path d="M52.9 20.5H12.1c-1.6 0-2.9 1.3-2.9 2.9v26.8c0 1.6 1.3 2.9 2.9 2.9h40.8c1.6 0 2.9-1.3 2.9-2.9V23.4c0-1.6-1.3-2.9-2.9-2.9M12.1 52.1c-1.1 0-1.9-.9-1.9-1.9V23.4c0-1.1.9-1.9 1.9-1.9h40.8c1.1 0 1.9.9 1.9 1.9v26.8c0 1.1-.9 1.9-1.9 1.9z" class="st10"/></svg>