<svg xmlns="http://www.w3.org/2000/svg" xml:space="preserve" id="图层_1" x="0" y="0" version="1.1" viewBox="0 0 64 64"><style>.st3{fill:#cae7ff}</style><path d="M53 16H30.1l-2-2.8c-.4-.9-1.2-1.3-2-1.3H12c-1.3 0-2.3 1.3-2.3 3.1v35.2c0 1.3 1.1 2.3 2.3 2.3h41c1.3 0 2.3-1.1 2.3-2.3V18.5c0-1.5-1-2.5-2.3-2.5" style="fill:#7fbfff"/><path d="M53 53.1H12c-1.6 0-2.8-1.3-2.8-2.8V15c0-2.1 1.2-3.6 2.8-3.6h14.1c1 0 1.9.6 2.4 1.6l1.8 2.5H53c1.6 0 2.8 1.2 2.8 2.9v31.8c0 1.7-1.3 2.9-2.8 2.9M12 12.4c-1 0-1.8 1.1-1.8 2.6v35.3c0 1.1.9 1.8 1.8 1.8h41c1.1 0 1.8-.9 1.8-1.8V18.5c0-1.1-.8-1.9-1.8-1.9H29.8l-2.1-3c-.4-.7-.9-1.1-1.6-1.1H12z" class="st3"/><path d="M12.1 21h40.8c1.3 0 2.4 1.1 2.4 2.4v26.8c0 1.3-1.1 2.4-2.4 2.4H12.1c-1.3 0-2.4-1.1-2.4-2.4V23.4c0-1.3 1.1-2.4 2.4-2.4" style="fill:#006bc2"/><path d="M52.9 53.1H12.1c-1.6 0-2.9-1.3-2.9-2.9V23.4c0-1.6 1.3-2.9 2.9-2.9h40.8c1.6 0 2.9 1.3 2.9 2.9v26.8c0 1.6-1.3 2.9-2.9 2.9M12.1 21.5c-1.1 0-1.9.9-1.9 1.9v26.8c0 1.1.9 1.9 1.9 1.9h40.8c1.1 0 1.9-.9 1.9-1.9V23.4c0-1.1-.9-1.9-1.9-1.9z" class="st3"/></svg>