<svg xmlns="http://www.w3.org/2000/svg" xml:space="preserve" id="图层_1" x="0" y="0" version="1.1" viewBox="0 0 64 64"><style>.st2{fill:#7fbfff}.st3{fill:#cae7ff}.st4{fill:#006bc2}</style><path d="M6.1 12h11.2v5.8H6.1z" class="st4"/><path d="M17.8 18.3H5.7v-6.7h12.1zm-11.2-.9h10.3v-4.9H6.6z" class="st3"/><path d="M19.6 12h11.2v5.8H19.6z" class="st2"/><path d="M31.3 18.3H19.2v-6.7h12.1zm-11.2-.9h10.3v-4.9H20.1z" class="st3"/><path d="M33.2 12h11.2v5.8H33.2z" class="st4"/><path d="M44.8 18.3H32.7v-6.7h12.1zm-11.2-.9h10.3v-4.9H33.6z" class="st3"/><path d="M46.7 12h11.2v5.8H46.7z" class="st2"/><path d="M58.3 18.3H46.2v-6.7h12.1zm-11.2-.9h10.3v-4.9H47.1z" class="st3"/><path d="M6.1 20.6h11.2v5.8H6.1z" class="st2"/><path d="M17.8 26.8H5.7v-6.7h12.1zm-11.2-.9h10.3V21H6.6z" class="st3"/><path d="M19.6 20.6h11.2v5.8H19.6z" class="st4"/><path d="M31.3 26.8H19.2v-6.7h12.1zm-11.2-.9h10.3V21H20.1z" class="st3"/><path d="M33.2 20.6h11.2v5.8H33.2z" class="st2"/><path d="M44.8 26.8H32.7v-6.7h12.1zm-11.2-.9h10.3V21H33.6z" class="st3"/><path d="M46.7 20.6h11.2v5.8H46.7z" class="st4"/><path d="M58.3 26.8H46.2v-6.7h12.1zm-11.2-.9h10.3V21H47.1z" class="st3"/><path d="M6.1 29.1h11.2v5.8H6.1z" class="st4"/><path d="M17.8 35.3H5.7v-6.7h12.1zm-11.2-.8h10.3v-4.9H6.6z" class="st3"/><path d="M19.6 29.1h11.2v5.8H19.6z" class="st2"/><path d="M31.3 35.3H19.2v-6.7h12.1zm-11.2-.8h10.3v-4.9H20.1z" class="st3"/><path d="M33.2 29.1h11.2v5.8H33.2z" class="st4"/><path d="M44.8 35.3H32.7v-6.7h12.1zm-11.2-.8h10.3v-4.9H33.6z" class="st3"/><path d="M46.7 29.1h11.2v5.8H46.7z" class="st2"/><path d="M58.3 35.3H46.2v-6.7h12.1zm-11.2-.8h10.3v-4.9H47.1z" class="st3"/><path d="M6.1 37.6h11.2v5.8H6.1z" class="st2"/><path d="M17.8 43.9H5.7v-6.7h12.1zM6.6 43h10.3v-4.9H6.6z" class="st3"/><path d="M33.1 37.6h11.2v5.8H33.1z" class="st2"/><path d="M44.8 43.9H32.7v-6.7h12.1zM33.6 43h10.3v-4.9H33.6z" class="st3"/><path d="M19.6 37.6h11.2v5.8H19.6z" class="st4"/><path d="M31.3 43.9H19.2v-6.7h12.1zM20.1 43h10.3v-4.9H20.1z" class="st3"/><path d="M46.7 37.6h11.2v5.8H46.7z" class="st4"/><path d="M58.3 43.9H46.2v-6.7h12.1zM47.1 43h10.3v-4.9H47.1z" class="st3"/><path d="M6.1 46.2h11.2V52H6.1z" class="st4"/><path d="M17.8 52.4H5.7v-6.7h12.1zm-11.2-.9h10.3v-4.9H6.6z" class="st3"/><path d="M19.6 46.2h11.2V52H19.6z" class="st2"/><path d="M31.3 52.4H19.2v-6.7h12.1zm-11.2-.9h10.3v-4.9H20.1z" class="st3"/><path d="M33.2 46.2h11.2V52H33.2z" class="st4"/><path d="M44.8 52.4H32.7v-6.7h12.1zm-11.2-.9h10.3v-4.9H33.6z" class="st3"/><path d="M46.7 46.2h11.2V52H46.7z" class="st2"/><path d="M58.3 52.4H46.2v-6.7h12.1zm-11.2-.9h10.3v-4.9H47.1z" class="st3"/></svg>