<svg xmlns="http://www.w3.org/2000/svg" xml:space="preserve" id="图层_1" x="0" y="0" version="1.1" viewBox="0 0 64 64"><style>.st3{fill:#cae7ff}.st5{fill:#fff}</style><path d="M53.6 16v39.9c0 1.9-1.5 3.4-3.4 3.4H14.7c-1.9 0-3.4-1.5-3.4-3.4V8.7c0-1.9 1.5-3.4 3.4-3.4h28.4z" style="fill:#006bc2"/><path d="M50.2 59.6H14.7c-2.1 0-3.8-1.7-3.8-3.8V8.7c0-2.1 1.7-3.8 3.8-3.8h28.6l10.8 10.9v40c0 2.1-1.7 3.8-3.9 3.8M14.7 5.8c-1.6 0-2.9 1.3-2.9 2.9v47.1c0 1.6 1.3 2.9 2.9 2.9h35.5c1.6 0 2.9-1.3 2.9-2.9V16.1L42.9 5.8z" class="st3"/><path d="M32.5 39.5c-.1 0-.3 0-.5-.3l-6.3-8.8c-.1-.1-.1-.3 0-.5s.3-.3.5-.3H30V20c0-.3.2-.6.6-.6h3c.3 0 .6.2.6.6v9.6h4.6c.2 0 .4.1.5.3s.1.3 0 .5L33 39.2c-.1.2-.2.3-.5.3" class="st5"/><path d="m33.6 20.1.1 9.2v1h5.1L32.6 39v.1l-.1-.1-6.2-8.7h4.3V20.2l.1-.1zm0-1h-3c-.6 0-1.1.5-1.1 1.1v9.1h-3.3c-.4 0-.7.2-.9.5-.2.4-.2.8 0 1.1l6.3 8.7c.2.3.5.5.9.5s.8-.2.9-.5l6.2-8.7c.2-.4.2-.7 0-1.1-.2-.3-.5-.5-.9-.5h-4.1v-9.1c.1-.7-.4-1.1-1-1.1" class="st3"/><path d="M21.2 40.3h22.6V44H21.2z" class="st5"/><path d="M44.3 44.5H20.7v-4.7h23.6zm-22.6-1h21.6v-2.7H21.7z" class="st3"/></svg>