<svg xmlns="http://www.w3.org/2000/svg" xml:space="preserve" id="图层_1" x="0" y="0" version="1.1" viewBox="0 0 64 64"><style>.st2{fill:#7fbfff}.st3{fill:#cae7ff}.st4{fill:#006bc2}</style><path d="M15.8 31.2h32.3v1.6H15.8z" class="st2"/><path d="M9.2 53.3v-1.6c10.9 0 19.7-8.8 19.7-19.7S20.1 12.3 9.2 12.3v-1.6c11.8 0 21.3 9.6 21.3 21.3S20.9 53.3 9.2 53.3m46.3 0c-11.8 0-21.3-9.6-21.3-21.3s9.6-21.3 21.3-21.3v1.6c-10.9 0-19.7 8.8-19.7 19.7s8.8 19.7 19.7 19.7z" class="st2"/><path d="M35.8 32h-1.6c0-11.8 9.6-21.3 21.3-21.3v1.6c-10.9 0-19.7 8.8-19.7 19.7" class="st4"/><path d="M11 16.3c-2.5 0-4.5-2-4.5-4.5s2-4.5 4.5-4.5 4.5 2 4.5 4.5-2.1 4.5-4.5 4.5" class="st2"/><path d="M11 7.8c2.2 0 4 1.8 4 4s-1.8 4-4 4-4-1.8-4-4c-.1-2.2 1.7-4 4-4m0-.8c-2.7 0-4.9 2.2-4.9 4.9s2.2 4.9 4.9 4.9 4.9-2.2 4.9-4.9C15.8 9.2 13.7 7 11 7" class="st3"/><path d="M11 36.4c-2.5 0-4.5-2-4.5-4.5s2-4.5 4.5-4.5 4.5 2 4.5 4.5-2.1 4.5-4.5 4.5" class="st2"/><path d="M11 27.9c2.2 0 4 1.8 4 4s-1.8 4-4 4-4-1.8-4-4 1.7-4 4-4m0-.8c-2.7 0-4.9 2.2-4.9 4.9s2.2 4.9 4.9 4.9 4.9-2.2 4.9-4.9c-.1-2.7-2.2-4.9-4.9-4.9" class="st3"/><path d="M11 56.6c-2.5 0-4.5-2-4.5-4.5s2-4.5 4.5-4.5 4.5 2 4.5 4.5c-.1 2.5-2.1 4.5-4.5 4.5" class="st2"/><path d="M11 48.1c2.2 0 4 1.8 4 4s-1.8 4-4 4-4-1.8-4-4c-.1-2.2 1.7-4 4-4m0-.9c-2.7 0-4.9 2.2-4.9 4.9S8.3 57 11 57s4.9-2.2 4.9-4.9c-.1-2.7-2.2-4.9-4.9-4.9" class="st3"/><path d="M53 16.3c-2.5 0-4.5-2-4.5-4.5s2-4.5 4.5-4.5 4.5 2 4.5 4.5-2 4.5-4.5 4.5" class="st4"/><path d="M53 7.8c2.2 0 4 1.8 4 4s-1.8 4-4 4-4-1.8-4-4 1.8-4 4-4m0-.8c-2.7 0-4.9 2.2-4.9 4.9s2.2 4.9 4.9 4.9 4.9-2.2 4.9-4.9S55.7 7 53 7" class="st3"/><path d="M53 36.4c-2.5 0-4.5-2-4.5-4.5s2-4.5 4.5-4.5 4.5 2 4.5 4.5-2 4.5-4.5 4.5" class="st2"/><path d="M53 27.9c2.2 0 4 1.8 4 4s-1.8 4-4 4-4-1.8-4-4 1.8-4 4-4m0-.8c-2.7 0-4.9 2.2-4.9 4.9s2.2 4.9 4.9 4.9 4.9-2.2 4.9-4.9-2.2-4.9-4.9-4.9" class="st3"/><path d="M53 56.6c-2.5 0-4.5-2-4.5-4.5s2-4.5 4.5-4.5 4.5 2 4.5 4.5-2 4.5-4.5 4.5" class="st2"/><path d="M53 48.1c2.2 0 4 1.8 4 4s-1.8 4-4 4-4-1.8-4-4 1.8-4 4-4m0-.9c-2.7 0-4.9 2.2-4.9 4.9S50.3 57 53 57s4.9-2.2 4.9-4.9-2.2-4.9-4.9-4.9" class="st3"/><path d="M24.4 36.4c-2.4 0-4.4-2-4.4-4.4s2-4.4 4.4-4.4h15.3c2.4 0 4.4 2 4.4 4.4s-2 4.4-4.4 4.4z" class="st4"/><path d="M39.7 28c2.2 0 4 1.8 4 4s-1.8 4-4 4H24.4c-2.2 0-4-1.8-4-4s1.8-4 4-4zm0-.9H24.4c-2.7 0-4.8 2.2-4.8 4.8s2.2 4.8 4.8 4.8h15.3c2.7 0 4.8-2.2 4.8-4.8s-2.1-4.8-4.8-4.8" class="st3"/></svg>