<svg xmlns="http://www.w3.org/2000/svg" xml:space="preserve" id="图层_1" x="0" y="0" version="1.1" viewBox="0 0 64 64"><style>.st2{fill:#7fbfff}.st3{fill:#cae7ff}.st4{fill:#006bc2}</style><path d="M10.1 32.6H3.8c-.3 0-.6-.3-.6-.7s.3-.7.6-.7h6.3c.3 0 .6.3.6.7s-.3.7-.6.7m42.7-13.2H36.2c-.4 0-.7-.3-.7-.7s.3-.7.7-.7h16.6c.4 0 .7.3.7.7s-.3.7-.7.7" class="st4"/><path d="M52.8 49c-.4 0-.7-.4-.7-.8V18.9c0-.5.3-.8.7-.8s.7.4.7.8v29.3c0 .4-.3.8-.7.8" class="st4"/><path d="M52.8 44H36.2c-.4 0-.7-.3-.7-.7s.3-.7.7-.7h16.6c.4 0 .7.3.7.7s-.3.7-.7.7" class="st4"/><path d="m9.8 31.9 27.1-15.7v31.3z" class="st4"/><path d="M36.4 17v29.7L10.7 31.9zm.9-1.6L8.8 31.9l28.5 16.4z" class="st3"/><path d="m52.7 53.9 7.1-5.6H45.7z" class="st2"/><path d="m52.7 54.4-8-6.4h16.1zm-6-5.7 6.1 4.8 6.1-4.8z" class="st3"/><path d="M49 23.8h7.4v15.6H49z" class="st2"/><path d="M56.8 39.7h-8.1V23.4h8.1zm-7.4-.7h6.7V24.1h-6.7z" class="st3"/><path d="M34.9 14.4v-1.5h-2.6v-2.6h-1.6v2.6h-2.6v1.5h2.6v2.7h1.6v-2.7zM28.1 49h6.8v1.6h-6.8z" class="st4"/><path d="M21.7 29.6c-.3-.1-.6-.1-.9-.1h-2v5.1H20v-2h.7c.4 0 .7 0 .9-.1.3-.1.4-.2.6-.4.1-.2.2-.4.2-.6v-.9c0-.2-.1-.4-.2-.6s-.3-.3-.5-.4m-.5 1.7c0 .1 0 .2-.1.2 0 .1-.1.1-.2.1H20v-1.4h.6c.1 0 .2 0 .3.1.1 0 .1.1.2.1 0 .1.1.1.1.2zm4.4-1.7c-.3-.1-.6-.1-.9-.1h-2v5.1H24v-2h.7c.4 0 .7 0 .9-.1.3-.1.4-.2.6-.4.1-.2.2-.4.2-.6v-.9c0-.2-.1-.4-.2-.6-.2-.2-.4-.3-.6-.4m-.5 1.7c0 .1 0 .2-.1.2 0 .1-.1.1-.2.1H24v-1.4h.6c.1 0 .2 0 .3.1.1 0 .1.1.2.1 0 .1.1.1.1.2v.7zm4 .9-1.2-2.8h-1.2v5.1h1.1v-3l1 2.1h.6l1-2.2v3.1h1.1v-5.1h-1.2zm5-2.8v3.9c0 .1 0 .2-.1.3s-.2.1-.4.1-.3 0-.4-.1-.1-.2-.1-.3v-3.9h-1.2v3.9c0 .3.1.5.2.7s.3.3.6.4.6.2.9.2c.4 0 .7-.1.9-.2.3-.1.5-.2.6-.4s.2-.4.2-.7v-3.9z" style="fill:#fff"/></svg>