<svg xmlns="http://www.w3.org/2000/svg" xml:space="preserve" id="图层_1" x="0" y="0" version="1.1" viewBox="0 0 64 64"><style>.st2{fill:#7fbfff}.st3{fill:#cae7ff}</style><path d="M17.1 52.8V39c0-.5.4-1 1-1h2.8c.5 0 1 .4 1 1v13.9c0 1.2-1 2.2-2.2 2.2h-.3c-1.3-.1-2.3-.9-2.3-2.3" class="st2"/><path d="M19.4 55.5c-1.5 0-2.8-1.3-2.8-2.8v-15h5.6v15.1c0 1.4-1.2 2.7-2.8 2.7m-1.9-17v14.1c0 1 .7 1.9 1.6 2 1.2.2 2.2-.7 2.2-1.9V38.5z" class="st3"/><path d="M42.2 52.8V39c0-.5.4-1 1-1H46c.5 0 1 .4 1 1v13.9c0 1.2-1 2.2-2.2 2.2h-.3c-1.3-.1-2.3-.9-2.3-2.3" class="st2"/><path d="M44.6 55.5c-1.5 0-2.8-1.3-2.8-2.8v-15h5.6v15.1c0 1.4-1.3 2.7-2.8 2.7m-1.9-17v14.2c0 1 .9 1.9 1.9 1.9s1.9-.9 1.9-1.9V38.5z" class="st3"/><path d="M25.5 53.5V40.2c0-1.2 1-2.1 2.1-2.1h8.8c1.2 0 2.1 1 2.1 2.1v13.3c0 .9-.7 1.6-1.6 1.6h-10c-.7-.1-1.4-.8-1.4-1.6" class="st2"/><path d="M37 55.5H27c-1.1 0-2-.9-2-2v-13c0-1.6 1.3-3 3-3h8c1.6 0 3 1.3 3 3v13c0 1.2-.9 2-2 2m-9-17c-1.1 0-2.1.9-2.1 2.1v13c0 .6.5 1.1 1.1 1.1h10c.6 0 1.1-.5 1.1-1.1v-13c0-1.1-.9-2.1-2.1-2.1z" class="st3"/><circle cx="32" cy="49.3" r="2.2" style="fill:#fff"/><path d="M32 47.7c1 0 1.8.8 1.8 1.8s-.8 1.7-1.8 1.7-1.8-.8-1.8-1.8.8-1.7 1.8-1.7m0-.9c-1.5 0-2.7 1.2-2.7 2.7s1.2 2.7 2.7 2.7 2.7-1.2 2.7-2.7-1.2-2.7-2.7-2.7" class="st3"/><path d="M13.5 39.8c-2.5 0-4.6-2.1-4.6-4.6V13.5c0-2.5 2.1-4.6 4.6-4.6h37c2.5 0 4.6 2.1 4.6 4.6V35c0 2.5-2.1 4.6-4.6 4.6h-37z" style="fill:#006bc2"/><path d="M50.5 9.3c2.3 0 4.2 2 4.2 4.3v21.6c0 2.3-1.9 4.2-4.2 4.2h-37c-2.3 0-4.2-1.9-4.2-4.2V13.5c0-2.3 1.9-4.2 4.2-4.2zm0-.8h-37c-2.8 0-5 2.3-5 5V35c0 2.8 2.3 5 5 5h37c2.8 0 5-2.3 5-5V13.5c0-2.7-2.2-5-5-5" class="st3"/></svg>