<svg xmlns="http://www.w3.org/2000/svg" xml:space="preserve" id="图层_1" x="0" y="0" version="1.1" viewBox="0 0 64 64"><style>.st2{fill:#7fbfff}.st3{fill:#cae7ff}</style><path d="M54.6 20.5H10.4c-.5 0-.9-.4-.9-.9s.4-.9.9-.9h44.3c.5 0 .9.4.9.9-.1.5-.5.9-1 .9m0 4.2H10.4c-.5 0-.9-.4-.9-.9s.4-.9.9-.9h44.3c.5 0 .9.4.9.9-.1.5-.5.9-1 .9m0 4.2H10.4c-.5 0-.9-.4-.9-.9s.4-.9.9-.9h44.3c.5 0 .9.4.9.9-.1.5-.5.9-1 .9m0 4.2H10.4c-.5 0-.9-.4-.9-.9s.4-.9.9-.9h44.3c.5 0 .9.4.9.9-.1.6-.5.9-1 .9m0 4.2H10.4c-.5 0-.9-.4-.9-.9s.4-.9.9-.9h44.3c.5 0 .9.4.9.9s-.5.9-1 .9m0 4.2H10.4c-.5 0-.9-.4-.9-.9s.4-.9.9-.9h44.3c.5 0 .9.4.9.9-.1.6-.5.9-1 .9m0 4.2H10.4c-.5 0-.9-.4-.9-.9s.4-.9.9-.9h44.3c.5 0 .9.4.9.9-.1.6-.5.9-1 .9" class="st2"/><path d="M45.1 55.3c-.5 0-.9-.4-.9-.9V10.1c0-.5.4-.9.9-.9s.9.4.9.9v44.3c0 .5-.4.9-.9.9m-4.2 0c-.5 0-.9-.4-.9-.9V10.1c0-.5.4-.9.9-.9s.9.4.9.9v44.3c0 .5-.4.9-.9.9m-4.2 0c-.5 0-.9-.4-.9-.9V10.1c0-.5.4-.9.9-.9s.9.4.9.9v44.3c0 .5-.4.9-.9.9m-4.2 0c-.5 0-.9-.4-.9-.9V10.1c0-.5.4-.9.9-.9s.9.4.9.9v44.3c0 .5-.4.9-.9.9m-4.2 0c-.5 0-.9-.4-.9-.9V10.1c0-.5.4-.9.9-.9s.9.4.9.9v44.3c0 .5-.4.9-.9.9m-4.2 0c-.5 0-.9-.4-.9-.9V10.1c0-.5.4-.9.9-.9s.9.4.9.9v44.3c0 .5-.4.9-.9.9m-4.2 0c-.5 0-.9-.4-.9-.9V10.1c0-.5.4-.9.9-.9s.9.4.9.9v44.3c-.1.5-.4.9-.9.9" class="st2"/><path d="M46.6 49.2H18.4c-1.6 0-2.8-1.3-2.8-2.8V18.2c0-1.6 1.3-2.8 2.8-2.8h28.2c1.6 0 2.8 1.3 2.8 2.8v28.2c0 1.5-1.2 2.8-2.8 2.8" style="fill:#006bc2"/><path d="M46.2 49.8H18.8c-2.1 0-3.8-1.7-3.8-3.8V18.6c0-2.1 1.7-3.8 3.8-3.8h27.4c2.1 0 3.8 1.7 3.8 3.8V46c0 2.1-1.7 3.8-3.8 3.8M18.8 15.9c-1.5 0-2.7 1.2-2.7 2.7V46c0 1.5 1.2 2.7 2.7 2.7h27.4c1.5 0 2.7-1.2 2.7-2.7V18.6c0-1.5-1.2-2.7-2.7-2.7z" class="st3"/><path d="M40 42.6H25c-1.6 0-2.8-1.3-2.8-2.8V24.7c0-1.6 1.3-2.8 2.8-2.8h15c1.6 0 2.8 1.3 2.8 2.8v15.1c.1 1.6-1.2 2.8-2.8 2.8" class="st2"/><path d="M39.9 43.2H25.1c-1.9 0-3.5-1.6-3.5-3.5V24.9c0-1.9 1.6-3.5 3.5-3.5H40c1.9 0 3.5 1.6 3.5 3.5v14.8c-.1 1.9-1.7 3.5-3.6 3.5M25.1 22.4c-1.3 0-2.4 1.1-2.4 2.4v14.8c0 1.3 1.1 2.4 2.4 2.4H40c1.3 0 2.4-1.1 2.4-2.4V24.9c0-1.3-1.1-2.4-2.4-2.4H25.1z" class="st3"/></svg>