<svg xmlns="http://www.w3.org/2000/svg" xml:space="preserve" id="图层_1" x="0" y="0" version="1.1" viewBox="0 0 64 64"><style>.st9{fill:#aaa}.st11{fill:#d3d3d3}</style><path d="M54.6 20.5H10.4c-.5 0-.9-.4-.9-.9s.4-.9.9-.9h44.3c.5 0 .9.4.9.9-.1.5-.5.9-1 .9m0 4.2H10.4c-.5 0-.9-.4-.9-.9s.4-.9.9-.9h44.3c.5 0 .9.4.9.9-.1.5-.5.9-1 .9m0 4.2H10.4c-.5 0-.9-.4-.9-.9s.4-.9.9-.9h44.3c.5 0 .9.4.9.9-.1.5-.5.9-1 .9m0 4.2H10.4c-.5 0-.9-.4-.9-.9s.4-.9.9-.9h44.3c.5 0 .9.4.9.9-.1.6-.5.9-1 .9m0 4.2H10.4c-.5 0-.9-.4-.9-.9s.4-.9.9-.9h44.3c.5 0 .9.4.9.9s-.5.9-1 .9m0 4.2H10.4c-.5 0-.9-.4-.9-.9s.4-.9.9-.9h44.3c.5 0 .9.4.9.9-.1.6-.5.9-1 .9m0 4.2H10.4c-.5 0-.9-.4-.9-.9s.4-.9.9-.9h44.3c.5 0 .9.4.9.9-.1.6-.5.9-1 .9" class="st9"/><path d="M45.1 55.3c-.5 0-.9-.4-.9-.9V10.1c0-.5.4-.9.9-.9s.9.4.9.9v44.3c0 .5-.4.9-.9.9m-4.2 0c-.5 0-.9-.4-.9-.9V10.1c0-.5.4-.9.9-.9s.9.4.9.9v44.3c0 .5-.4.9-.9.9m-4.2 0c-.5 0-.9-.4-.9-.9V10.1c0-.5.4-.9.9-.9s.9.4.9.9v44.3c0 .5-.4.9-.9.9m-4.2 0c-.5 0-.9-.4-.9-.9V10.1c0-.5.4-.9.9-.9s.9.4.9.9v44.3c0 .5-.4.9-.9.9m-4.2 0c-.5 0-.9-.4-.9-.9V10.1c0-.5.4-.9.9-.9s.9.4.9.9v44.3c0 .5-.4.9-.9.9m-4.2 0c-.5 0-.9-.4-.9-.9V10.1c0-.5.4-.9.9-.9s.9.4.9.9v44.3c0 .5-.4.9-.9.9m-4.2 0c-.5 0-.9-.4-.9-.9V10.1c0-.5.4-.9.9-.9s.9.4.9.9v44.3c-.1.5-.4.9-.9.9" class="st9"/><path d="M46.6 49.2H18.4c-1.6 0-2.8-1.3-2.8-2.8V18.2c0-1.6 1.3-2.8 2.8-2.8h28.2c1.6 0 2.8 1.3 2.8 2.8v28.2c0 1.5-1.2 2.8-2.8 2.8" style="fill:#606060"/><path d="M46.2 49.8H18.8c-2.1 0-3.8-1.7-3.8-3.8V18.6c0-2.1 1.7-3.8 3.8-3.8h27.4c2.1 0 3.8 1.7 3.8 3.8V46c0 2.1-1.7 3.8-3.8 3.8M18.8 15.9c-1.5 0-2.7 1.2-2.7 2.7V46c0 1.5 1.2 2.7 2.7 2.7h27.4c1.5 0 2.7-1.2 2.7-2.7V18.6c0-1.5-1.2-2.7-2.7-2.7z" class="st11"/><path d="M41.1 43.7H23.9c-1.6 0-2.8-1.3-2.8-2.8V23.6c0-1.6 1.3-2.8 2.8-2.8h17.3c1.6 0 2.8 1.3 2.8 2.8v17.3c0 1.6-1.3 2.8-2.9 2.8" class="st9"/><path d="M40.7 44.3H24.3c-2.1 0-3.8-1.7-3.8-3.8V24.1c0-2.1 1.7-3.8 3.8-3.8h16.4c2.1 0 3.8 1.7 3.8 3.8v16.4c0 2.1-1.7 3.8-3.8 3.8M24.3 21.4c-1.5 0-2.7 1.2-2.7 2.7v16.4c0 1.5 1.2 2.7 2.7 2.7h16.4c1.5 0 2.7-1.2 2.7-2.7V24.1c0-1.5-1.2-2.7-2.7-2.7z" class="st11"/></svg>