<svg xmlns="http://www.w3.org/2000/svg" xml:space="preserve" id="图层_1" x="0" y="0" version="1.1" viewBox="0 0 64 64"><style>.st2{fill:#7fbfff}.st3{fill:#cae7ff}.st4{fill:#006bc2}</style><path d="M44 23.3H10.2c-1.4 0-2.6-1.2-2.6-2.6v-8.2c0-1.4 1.2-2.6 2.6-2.6H44c1.4 0 2.6 1.2 2.6 2.6v8.2c0 1.5-1.1 2.6-2.6 2.6" class="st2"/><path d="M44.1 23.8H10.2c-1.6 0-3-1.3-3-3v-8.3c0-1.6 1.3-3 3-3h33.9c1.6 0 3 1.3 3 3v8.3c0 1.7-1.4 3-3 3M10.2 10.4c-1.1 0-2.1.9-2.1 2.1v8.3c0 1.1.9 2.1 2.1 2.1h33.9c1.1 0 2.1-.9 2.1-2.1v-8.3c0-1.1-.9-2.1-2.1-2.1z" class="st3"/><path d="M44 38.7H10.2c-1.4 0-2.6-1.2-2.6-2.6v-8.2c0-1.4 1.2-2.6 2.6-2.6H44c1.4 0 2.6 1.2 2.6 2.6v8.2c0 1.4-1.1 2.6-2.6 2.6" class="st4"/><path d="M44.1 39.1H10.2c-1.6 0-3-1.3-3-3v-8.3c0-1.6 1.3-3 3-3h33.9c1.6 0 3 1.3 3 3v8.3c0 1.7-1.4 3-3 3M10.2 25.8c-1.1 0-2.1.9-2.1 2.1v8.3c0 1.1.9 2.1 2.1 2.1h33.9c1.1 0 2.1-.9 2.1-2.1v-8.3c0-1.1-.9-2.1-2.1-2.1z" class="st3"/><path d="M44 54H10.2c-1.4 0-2.6-1.2-2.6-2.6v-8.2c0-1.4 1.2-2.6 2.6-2.6H44c1.4 0 2.6 1.2 2.6 2.6v8.2c0 1.5-1.1 2.6-2.6 2.6" class="st2"/><path d="M44.1 54.5H10.2c-1.6 0-3-1.3-3-3v-8.3c0-1.6 1.3-3 3-3h33.9c1.6 0 3 1.3 3 3v8.3c0 1.6-1.4 3-3 3M10.2 41.1c-1.1 0-2.1.9-2.1 2.1v8.3c0 1.1.9 2.1 2.1 2.1h33.9c1.1 0 2.1-.9 2.1-2.1v-8.3c0-1.1-.9-2.1-2.1-2.1z" class="st3"/><circle cx="44.9" cy="32" r="12.4" class="st4"/><path d="M44.9 44.9C37.8 44.9 32 39.1 32 32s5.8-12.9 12.9-12.9S57.8 24.9 57.8 32 52 44.9 44.9 44.9m0-24.9c-6.6 0-12 5.4-12 12s5.4 12 12 12 12-5.4 12-12-5.4-12-12-12" class="st3"/><path d="M52.1 33.6v-3.2h-5.5v-5.5h-3.3v5.5h-5.5v3.2h5.5v5.5h3.3v-5.5z" style="fill:#fff"/><path d="M47 39.6h-4.2v-5.5h-5.5v-4.2h5.5v-5.5H47v5.5h5.5v4.2H47zm-3.3-.9h2.4v-5.5h5.5v-2.4h-5.5v-5.5h-2.4v5.5h-5.5v2.4h5.5z" class="st3"/></svg>