<svg xmlns="http://www.w3.org/2000/svg" xml:space="preserve" id="图层_1" x="0" y="0" version="1.1" viewBox="0 0 64 64"><style>.st2{fill:#aaa}.st3{fill:#d3d3d3}.st4{fill:#606060}</style><path d="M43.5 23.3H9.7c-1.4 0-2.6-1.2-2.6-2.6v-8.2c0-1.4 1.2-2.6 2.6-2.6h33.8c1.4 0 2.6 1.2 2.6 2.6v8.2c0 1.5-1.1 2.6-2.6 2.6" class="st2"/><path d="M43.6 23.8H9.7c-1.6 0-3-1.3-3-3v-8.3c0-1.6 1.3-3 3-3h33.9c1.6 0 3 1.3 3 3v8.3c0 1.7-1.4 3-3 3M9.7 10.4c-1.1 0-2.1.9-2.1 2.1v8.3c0 1.1.9 2.1 2.1 2.1h33.9c1.1 0 2.1-.9 2.1-2.1v-8.3c0-1.1-.9-2.1-2.1-2.1z" class="st3"/><path d="M43.5 38.7H9.7c-1.4 0-2.6-1.2-2.6-2.6v-8.2c0-1.4 1.2-2.6 2.6-2.6h33.8c1.4 0 2.6 1.2 2.6 2.6v8.2c0 1.4-1.1 2.6-2.6 2.6" class="st4"/><path d="M43.6 39.1H9.7c-1.6 0-3-1.3-3-3v-8.3c0-1.6 1.3-3 3-3h33.9c1.6 0 3 1.3 3 3v8.3c0 1.7-1.4 3-3 3M9.7 25.7c-1.1 0-2.1.9-2.1 2.1v8.3c0 1.1.9 2.1 2.1 2.1h33.9c1.1 0 2.1-.9 2.1-2.1v-8.3c0-1.1-.9-2.1-2.1-2.1z" class="st3"/><path d="M43.5 54H9.7c-1.4 0-2.6-1.2-2.6-2.6v-8.2c0-1.4 1.2-2.6 2.6-2.6h33.8c1.4 0 2.6 1.2 2.6 2.6v8.2c0 1.5-1.1 2.6-2.6 2.6" class="st2"/><path d="M43.6 54.5H9.7c-1.6 0-3-1.3-3-3v-8.3c0-1.6 1.3-3 3-3h33.9c1.6 0 3 1.3 3 3v8.3c0 1.6-1.4 3-3 3M9.7 41.1c-1.1 0-2.1.9-2.1 2.1v8.3c0 1.1.9 2.1 2.1 2.1h33.9c1.1 0 2.1-.9 2.1-2.1v-8.3c0-1.1-.9-2.1-2.1-2.1z" class="st3"/><circle cx="44.4" cy="32" r="12.4" class="st4"/><path d="M44.4 44.9c-7.1 0-12.9-5.8-12.9-12.9s5.8-12.9 12.9-12.9S57.3 24.9 57.3 32s-5.8 12.9-12.9 12.9m0-24.9c-6.6 0-12 5.4-12 12s5.4 12 12 12 12-5.4 12-12-5.4-12-12-12" class="st3"/><path d="M51.5 33.6v-3.2h-5.4v-5.5h-3.3v5.5h-5.5v3.2h5.5v5.5h3.3v-5.5z" style="fill:#fff"/><path d="M46.5 39.6h-4.2v-5.5h-5.5v-4.2h5.5v-5.5h4.2v5.5H52v4.2h-5.5zm-3.3-.9h2.4v-5.5h5.5v-2.4h-5.5v-5.5h-2.4v5.5h-5.5v2.4h5.5z" class="st3"/></svg>