<svg xmlns="http://www.w3.org/2000/svg" xml:space="preserve" viewBox="0 0 64 64"><path d="m56.2 38-23.3.1v8.1c0 .6-.6.9-1.1.6L9.9 34.2c-1.4-.8-1.4-2.9 0-3.7l21.8-12.6c.5-.3 1.1.1 1.1.6V28h23.3v10z" style="fill:#606060"/><path d="M32.1 47.4c-.2 0-.4-.1-.6-.2L9.7 34.6c-.8-.5-1.3-1.3-1.3-2.3s.5-1.8 1.3-2.3l21.8-12.6q.6-.3 1.2 0c.4.2.6.6.6 1.1v9h23.3v11l-23.3.1v7.6c0 .4-.2.8-.6 1.1-.2 0-.4.1-.6.1m0-29.2H32L10.2 30.9c-.5.3-.8.8-.8 1.4s.3 1.1.8 1.4L32 46.4c.1.1.2 0 .2 0s.1-.1.1-.2v-8.6l23.3-.1v-9H32.3v-10c0-.1-.1-.2-.1-.2s0-.1-.1-.1" style="fill:#d3d3d3"/></svg>