<svg xmlns="http://www.w3.org/2000/svg" xml:space="preserve" id="图层_1" x="0" y="0" version="1.1" viewBox="0 0 64 64"><style>.st2{fill:#7fbfff}.st3{fill:#cae7ff}.st4{fill:#006bc2}</style><path d="m24.704 30.025 8.556-8.556 2.263 2.263-8.556 8.556z" class="st4"/><path d="M26.9 32.9 24 30l9.2-9.2 2.9 2.9zM25.2 30l1.6 1.6 7.9-7.9-1.6-1.6z" class="st3"/><path d="m8.037 53.678 8.556-8.556 2.263 2.262L10.3 55.94z" class="st4"/><path d="m10.4 56.5-2.9-2.9 9.2-9.2 2.9 2.9zm-1.8-2.8 1.6 1.6 7.9-7.9-1.6-1.6z" class="st3"/><path d="m31.71 37.025 8.557-8.556 2.262 2.263-8.555 8.556z" class="st4"/><path d="M33.9 39.9 31 37l9.2-9.2 2.9 2.9zM32.2 37l1.6 1.6 7.9-7.9-1.6-1.6z" class="st3"/><path d="m38 39-8.7 8.7c-3.4 3.4-8.9 3.4-12.3 0l-.8-.8c-3.4-3.4-3.4-8.9 0-12.3l8.7-8.7z" class="st4"/><path d="M23.2 50.4c-2.5 0-5-.9-6.8-2.8-3.8-3.8-3.8-9.9 0-13.7l8.6-8.6L38.7 39l-8.6 8.6c-1.9 1.9-4.4 2.8-6.9 2.8M25 26.5l-8 8c-3.4 3.4-3.4 9 0 12.4s9 3.4 12.4 0l8-8z" class="st3"/><path d="m45.066 16.646 8.556-8.556 2.263 2.263-8.556 8.556z" class="st2"/><path d="m47.4 19.5-2.9-2.9 9.2-9.2 2.9 2.9zm-1.7-2.9 1.6 1.6 7.9-7.9-1.6-1.6z" class="st3"/><path d="m25 25.9 8.7-8.7c3.4-3.4 8.9-3.4 12.3 0l.8.8c3.4 3.4 3.4 8.9 0 12.3L38.2 39z" class="st2"/><path d="M38 39.6 24.4 25.9l8.6-8.6c1.8-1.8 4.3-2.8 6.8-2.8 2.6 0 5 1 6.8 2.8 3.8 3.8 3.8 9.9 0 13.7zM25.7 25.9 38 38.3l8-8c3.4-3.4 3.4-9 0-12.4-1.7-1.7-3.9-2.6-6.2-2.6s-4.6.9-6.2 2.6z" class="st3"/></svg>