<svg xmlns="http://www.w3.org/2000/svg" xml:space="preserve" id="图层_1" x="0" y="0" version="1.1" viewBox="0 0 64 64"><style>.st3{fill:#cae7ff}.st4{fill:#006bc2}</style><path d="M33.9 48.1c-1 0-2.1-.8-2.1-2.1v-7.8H15.7V27.6h16.1v-7.8c0-1.3 1.1-2.1 2.1-2.1.4 0 .7.1 1 .3l22.7 13.1c.6.4 1 1 1 1.8s-.4 1.4-1 1.8L34.9 47.8c-.3.2-.7.3-1 .3" class="st4"/><path d="M33.9 18.1c.3 0 .6.1.8.2l22.7 13.1c.5.3.8.8.8 1.4s-.3 1.1-.8 1.4L34.7 47.3c-.3.1-.5.2-.8.2-.8 0-1.6-.6-1.6-1.6v-8.3H16.2v-9.7h16.1v-8.3c-.1-.8.8-1.5 1.6-1.5m0-.9c-1.3 0-2.5 1.1-2.5 2.5v7.4H15.3v11.5h16.1V46c0 1.5 1.2 2.5 2.5 2.5.4 0 .9-.1 1.3-.3l22.7-13.1c1.7-1 1.7-3.4 0-4.4L35.2 17.6c-.5-.2-.9-.4-1.3-.4" class="st3"/><path d="M5.3 27.6h7v10.6h-7z" class="st4"/><path d="M11.8 28v9.7H5.7V28zm.9-.9H4.9v11.5h7.8z" class="st3"/></svg>