<svg xmlns="http://www.w3.org/2000/svg" xml:space="preserve" id="图层_1" x="0" y="0" version="1.1" viewBox="0 0 64 64"><style>.st9{fill:#606060}.st10{fill:#d3d3d3}</style><path d="M33.8 46.5c-1 0-2.1-.8-2.1-2.1v-7.8H15.6V26h16.1v-7.8c0-1.3 1.1-2.1 2.1-2.1.4 0 .7.1 1 .3l22.7 13.1c.6.4 1 1 1 1.8s-.4 1.4-1 1.8L34.8 46.2c-.3.2-.7.3-1 .3" class="st9"/><path d="M33.8 16.5c.3 0 .6.1.8.2l22.7 13.1c.5.3.8.8.8 1.4s-.3 1.1-.8 1.4L34.6 45.7c-.3.1-.5.2-.8.2-.8 0-1.6-.6-1.6-1.6V36H16.1v-9.7h16.1V18c-.1-.8.8-1.5 1.6-1.5m0-.9c-1.3 0-2.5 1.1-2.5 2.5v7.4H15.2V37h16.1v7.4c0 1.5 1.2 2.5 2.5 2.5.4 0 .9-.1 1.3-.3l22.7-13.1c1.7-1 1.7-3.4 0-4.4L35.1 16c-.5-.2-.9-.4-1.3-.4" class="st10"/><path d="M5.2 26h7v10.6h-7z" class="st9"/><path d="M11.7 26.4v9.7H5.6v-9.7zm.9-.9H4.8V37h7.8z" class="st10"/></svg>