<svg xmlns="http://www.w3.org/2000/svg" xml:space="preserve" id="图层_1" x="0" y="0" version="1.1" viewBox="0 0 64 64"><style>.st3{fill:#d3d3d3}.st4{fill:#606060}</style><path d="M41.2 54.7H12.5c-.8 0-1.4-.6-1.4-1.4V18.5c0-.8.6-1.4 1.4-1.4h28.7c.8 0 1.4.6 1.4 1.4v34.8c0 .7-.6 1.4-1.4 1.4" style="fill:#aaa"/><path d="M40.1 55.2H13.6c-1.6 0-3-1.3-3-3V19.6c0-1.6 1.3-3 3-3h26.5c1.6 0 3 1.3 3 3v32.6c0 1.6-1.3 3-3 3M13.6 17.5c-1.1 0-2.1.9-2.1 2.1v32.6c0 1.1.9 2.1 2.1 2.1h26.5c1.1 0 2.1-.9 2.1-2.1V19.6c0-1.1-.9-2.1-2.1-2.1z" class="st3"/><path d="M52.8 20.2v24.3c0 1.4-1.1 2.5-2.5 2.5H23.8c-1.4 0-2.5-1.1-2.5-2.5V11.8c0-1.4 1.1-2.5 2.5-2.5h18.1" class="st4"/><path d="M50.3 47.5H23.8c-1.6 0-3-1.3-3-3V11.8c0-1.6 1.3-3 3-3h18.1v.9H23.8c-1.1 0-2.1.9-2.1 2.1v32.6c0 1.1.9 2.1 2.1 2.1h26.5c1.1 0 2.1-.9 2.1-2.1V20.2h.9v24.3c0 1.7-1.4 3-3 3" class="st3"/><path d="M42.3 19.8V10l10 9.8z" class="st4"/><path d="m42.8 11 8.4 8.4h-8.4zm-.9-2.2v11.5h11.5z" class="st3"/><path d="M29.4 24.2h16.8V26H29.4zm0 5h16.8V31H29.4zm0 5h16.8V36H29.4zm0 5h8.4V41h-8.4z" style="fill:#fff"/></svg>