<svg xmlns="http://www.w3.org/2000/svg" xml:space="preserve" id="图层_1" x="0" y="0" version="1.1" viewBox="0 0 64 64"><style>.st3{fill:#cae7ff}.st4{fill:#006bc2}</style><path d="M41.7 54.7H13c-.8 0-1.4-.6-1.4-1.4V18.5c0-.8.6-1.4 1.4-1.4h28.7c.8 0 1.4.6 1.4 1.4v34.8c0 .8-.6 1.4-1.4 1.4" style="fill:#7fbfff"/><path d="M40.6 55.2H14.1c-1.6 0-3-1.3-3-3V19.6c0-1.6 1.3-3 3-3h26.5c1.6 0 3 1.3 3 3v32.6c0 1.6-1.3 3-3 3M14.1 17.5c-1.1 0-2.1.9-2.1 2.1v32.6c0 1.1.9 2.1 2.1 2.1h26.5c1.1 0 2.1-.9 2.1-2.1V19.6c0-1.1-.9-2.1-2.1-2.1z" class="st3"/><path d="M53.3 20.2v24.3c0 1.4-1.1 2.5-2.5 2.5H24.3c-1.4 0-2.5-1.1-2.5-2.5V11.9c0-1.4 1.1-2.5 2.5-2.5h18.1" class="st4"/><path d="M50.8 47.5H24.3c-1.6 0-3-1.3-3-3V11.9c0-1.6 1.3-3 3-3h18.1v.9H24.3c-1.1 0-2.1.9-2.1 2.1v32.6c0 1.1.9 2.1 2.1 2.1h26.5c1.1 0 2.1-.9 2.1-2.1V20.2h.9v24.3c0 1.6-1.4 3-3 3" class="st3"/><path d="M42.8 19.9v-10l10 10z" class="st4"/><path d="m43.3 11 8.4 8.4h-8.4zm-.9-2.2v11.5h11.5z" class="st3"/><path d="M29.9 24.2h16.8V26H29.9zm0 5h16.8V31H29.9zm0 5h16.8V36H29.9zm0 5h8.4V41h-8.4z" style="fill:#fff"/></svg>