<svg xmlns="http://www.w3.org/2000/svg" xml:space="preserve" id="图层_1" x="0" y="0" version="1.1" viewBox="0 0 64 64"><style>.st9{fill:#606060}.st10{fill:#d3d3d3}</style><path d="m49.5 41.4-4.1-7.8c-1.7-3.2-5.6-4.4-8.8-2.7l-2.2 1.2-11-20.8c-1.9 1-2.6 3.4-1.6 5.3L33 38.1l8.1 15.2 5.7-3c3.2-1.8 4.4-5.7 2.7-8.9m-5 5.2-1.9 1-6.1-11.4-.2-.3 1.9-1c1.4-.7 3.3 0 4.2 1.7l3 5.6c.9 1.7.5 3.6-.9 4.4" class="st9"/><path d="m23.3 11.3 11 20.8 2.2-1.2c1-.5 2-.8 3-.8 2.3 0 4.6 1.3 5.8 3.5l4.1 7.8c1.7 3.2.5 7.1-2.7 8.8l-5.7 3-8-15.1-11.3-21.4c-1-1.9-.3-4.3 1.6-5.4m19.3 36.3 1.9-1c1.4-.7 1.8-2.7.9-4.4l-3-5.6c-.7-1.3-1.9-2-3-2q-.6 0-1.2.3l-1.9 1 .2.3zM23.7 10l-.9.5c-2.4 1.3-3.3 4.3-2 6.7l11.4 21.4 8.1 15.2.5.9.9-.5 5.7-3c1.8-.9 3.1-2.5 3.7-4.4s.4-3.9-.6-5.7l-4.1-7.8c-1.3-2.5-3.8-4-6.6-4-1.2 0-2.4.3-3.5.9l-1.3.7-10.8-20zm14 26.3 1-.6c.2-.1.4-.2.7-.2.8 0 1.7.6 2.1 1.5l3 5.6c.3.6.4 1.3.3 1.9-.1.5-.4 1-.8 1.2l-1 .6z" class="st10"/><path d="m41.7 11.3-11 20.8-2.2-1.2c-3.2-1.7-7.1-.5-8.8 2.7l-4.1 7.8c-1.7 3.2-.5 7.1 2.7 8.8l5.7 3 8-15.1 11.4-21.4c.9-1.9.2-4.3-1.7-5.4M22.4 47.6l-1.9-1c-1.4-.7-1.8-2.7-.9-4.4l3-5.6c.9-1.7 2.8-2.5 4.2-1.7l1.9 1-.2.3z" class="st9"/><path d="M41.7 11.3c1.9 1 2.6 3.4 1.6 5.3L32 38.1l-8.1 15.2-5.7-3c-3.2-1.7-4.4-5.6-2.7-8.8l4.1-7.8c1.2-2.2 3.4-3.5 5.8-3.5 1 0 2.1.2 3 .8l2.2 1.2zM22.4 47.6l6.1-11.4.2-.3-1.9-1q-.6-.3-1.2-.3c-1.2 0-2.4.8-3 2l-3 5.6c-.9 1.7-.5 3.7.9 4.4zM41.3 10l-.5.9-10.6 19.9-1.3-.7c-1.1-.6-2.3-.9-3.5-.9-2.8 0-5.3 1.5-6.6 4L14.7 41c-.9 1.8-1.1 3.8-.6 5.7.6 1.9 1.9 3.5 3.7 4.4l5.7 3 .9.5.5-.9L33 38.5l11.4-21.4c1.3-2.4.4-5.4-2-6.7zM22 46.3l-1-.6c-.9-.5-1.1-1.9-.5-3.1l3-5.6c.5-.9 1.3-1.5 2.1-1.5.2 0 .5.1.7.2l1 .6z" class="st10"/><circle cx="32.4" cy="32.9" r="1.3" class="st10"/></svg>