<svg xmlns="http://www.w3.org/2000/svg" xml:space="preserve" id="图层_1" x="0" y="0" version="1.1" viewBox="0 0 64 64"><style>.st3{fill:#d3d3d3}.st4{fill:#606060}</style><path d="M43.5 23.3H9.6c-1.4 0-2.6-1.2-2.6-2.6v-8.2c0-1.4 1.2-2.6 2.6-2.6h33.8c1.4 0 2.6 1.2 2.6 2.6v8.2c0 1.5-1.1 2.6-2.5 2.6" class="st4"/><path d="M43.5 23.8H9.6c-1.6 0-3-1.3-3-3v-8.3c0-1.6 1.3-3 3-3h33.9c1.6 0 3 1.3 3 3v8.3c0 1.7-1.4 3-3 3M9.6 10.4c-1.1 0-2.1.9-2.1 2.1v8.3c0 1.1.9 2.1 2.1 2.1h33.9c1.1 0 2.1-.9 2.1-2.1v-8.3c0-1.1-.9-2.1-2.1-2.1z" class="st3"/><path d="M43.5 38.7H9.6c-1.4 0-2.6-1.2-2.6-2.6v-8.2c0-1.4 1.2-2.6 2.6-2.6h33.8c1.4 0 2.6 1.2 2.6 2.6v8.2c0 1.4-1.1 2.6-2.5 2.6" style="fill:#aaa"/><path d="M43.5 39.1H9.6c-1.6 0-3-1.3-3-3v-8.3c0-1.6 1.3-3 3-3h33.9c1.6 0 3 1.3 3 3v8.3c0 1.7-1.4 3-3 3M9.6 25.7c-1.1 0-2.1.9-2.1 2.1v8.3c0 1.1.9 2.1 2.1 2.1h33.9c1.1 0 2.1-.9 2.1-2.1v-8.3c0-1.1-.9-2.1-2.1-2.1z" class="st3"/><path d="M43.5 54H9.6C8.2 54 7 52.8 7 51.4v-8.2c0-1.4 1.2-2.6 2.6-2.6h33.8c1.4 0 2.6 1.2 2.6 2.6v8.2c0 1.5-1.1 2.6-2.5 2.6" class="st4"/><path d="M43.5 54.5H9.6c-1.6 0-3-1.3-3-3v-8.3c0-1.6 1.3-3 3-3h33.9c1.6 0 3 1.3 3 3v8.3c0 1.6-1.4 3-3 3M9.6 41.1c-1.1 0-2.1.9-2.1 2.1v8.3c0 1.1.9 2.1 2.1 2.1h33.9c1.1 0 2.1-.9 2.1-2.1v-8.3c0-1.1-.9-2.1-2.1-2.1z" class="st3"/><circle cx="44.4" cy="32" r="12.4" class="st4"/><path d="M44.4 44.9c-7.1 0-12.9-5.8-12.9-12.9s5.8-12.9 12.9-12.9 13 5.8 13 12.9-5.9 12.9-13 12.9m0-24.9c-6.6 0-12 5.4-12 12s5.4 12 12 12 12-5.4 12-12-5.4-12-12-12" class="st3"/><path d="M46 33.6h5.5v-3.2H37.3v3.2h5.5z" style="fill:#fff"/><path d="M52 34.1H36.8v-4.2h15.1v4.2zm-14.3-.9h13.4v-2.4H37.7z" class="st3"/></svg>