<svg xmlns="http://www.w3.org/2000/svg" xml:space="preserve" id="图层_1" x="0" y="0" version="1.1" viewBox="0 0 64 64"><style>.st3{fill:#cae7ff}.st4{fill:#006bc2}</style><path d="M44.1 23.5H10.3c-1.4 0-2.6-1.2-2.6-2.6v-8.2c0-1.4 1.2-2.6 2.6-2.6h33.8c1.4 0 2.6 1.2 2.6 2.6v8.2c0 1.4-1.2 2.6-2.6 2.6" class="st4"/><path d="M44.1 23.9H10.2c-1.6 0-3-1.3-3-3v-8.3c0-1.6 1.3-3 3-3h33.9c1.6 0 3 1.3 3 3V21c0 1.6-1.3 2.9-3 2.9M10.2 10.6c-1.1 0-2.1.9-2.1 2.1V21c0 1.1.9 2.1 2.1 2.1h33.9c1.1 0 2.1-.9 2.1-2.1v-8.3c0-1.1-.9-2.1-2.1-2.1z" class="st3"/><path d="M44.1 38.8H10.3c-1.4 0-2.6-1.2-2.6-2.6V28c0-1.4 1.2-2.6 2.6-2.6h33.8c1.4 0 2.6 1.2 2.6 2.6v8.2c0 1.5-1.2 2.6-2.6 2.6" style="fill:#7fbfff"/><path d="M44.1 39.3H10.2c-1.6 0-3-1.3-3-3V28c0-1.6 1.3-3 3-3h33.9c1.6 0 3 1.3 3 3v8.3c0 1.7-1.3 3-3 3M10.2 25.9c-1.1 0-2.1.9-2.1 2.1v8.3c0 1.1.9 2.1 2.1 2.1h33.9c1.1 0 2.1-.9 2.1-2.1V28c0-1.1-.9-2.1-2.1-2.1z" class="st3"/><path d="M44.1 54.2H10.3c-1.4 0-2.6-1.2-2.6-2.6v-8.2c0-1.4 1.2-2.6 2.6-2.6h33.8c1.4 0 2.6 1.2 2.6 2.6v8.2c0 1.4-1.2 2.6-2.6 2.6" class="st4"/><path d="M44.1 54.6H10.2c-1.6 0-3-1.3-3-3v-8.3c0-1.6 1.3-3 3-3h33.9c1.6 0 3 1.3 3 3v8.3c0 1.7-1.3 3-3 3M10.2 41.3c-1.1 0-2.1.9-2.1 2.1v8.3c0 1.1.9 2.1 2.1 2.1h33.9c1.1 0 2.1-.9 2.1-2.1v-8.3c0-1.1-.9-2.1-2.1-2.1z" class="st3"/><circle cx="45" cy="32.2" r="12.4" class="st4"/><path d="M45 45c-7.1 0-12.9-5.8-12.9-12.9S37.9 19.3 45 19.3s12.9 5.8 12.9 12.9S52.1 45 45 45m0-24.8c-6.6 0-12 5.4-12 12s5.4 12 12 12 12-5.4 12-12-5.4-12-12-12" class="st3"/><path d="M46.7 33.8h5.5v-3.3H37.9v3.3h5.5z" style="fill:#fff"/><path d="M52.6 34.2H37.5V30h15.1zm-14.2-.9h13.4V31H38.4z" class="st3"/></svg>