<svg xmlns="http://www.w3.org/2000/svg" xml:space="preserve" id="图层_1" x="0" y="0" version="1.1" viewBox="0 0 64 64"><style>.st2{fill:#7fbfff}.st3{fill:#cae7ff}.st4{fill:#006bc2}</style><path d="m19.775 34.95 8.556-8.555 2.263 2.262-8.556 8.556z" class="st4"/><path d="M22 37.8 19.1 35l9.2-9.2 2.9 2.9zm-1.6-2.9 1.6 1.6 7.9-7.9-1.6-1.6z" class="st3"/><path d="m3.108 58.462 8.556-8.556 2.263 2.262-8.556 8.556z" class="st4"/><path d="m5.4 61.4-2.9-2.9 9.2-9.2 2.9 2.9zm-1.7-2.9 1.6 1.6 7.9-7.9-1.6-1.6z" class="st3"/><path d="m26.782 41.95 8.556-8.555 2.262 2.262-8.555 8.556z" class="st4"/><path d="M29 44.8 26.1 42l9.2-9.2 2.9 2.9zm-1.6-2.9 1.6 1.6 7.9-7.9-1.6-1.6z" class="st3"/><path d="m33.1 43.8-8.7 8.7c-3.4 3.4-8.9 3.4-12.3 0l-.8-.8c-3.4-3.4-3.4-8.9 0-12.3l8.7-8.7z" class="st4"/><path d="M18.3 55.3c-2.6 0-5-1-6.8-2.8-3.8-3.8-3.8-9.9 0-13.7l8.6-8.6 13.7 13.7-8.6 8.6c-1.9 1.8-4.3 2.8-6.9 2.8m1.8-23.9-8 8c-3.4 3.4-3.4 9 0 12.4 1.7 1.7 3.9 2.6 6.2 2.6s4.6-.9 6.2-2.6l8-8z" class="st3"/><path d="m49.978 11.745 8.556-8.555 2.263 2.262-8.556 8.556z" class="st2"/><path d="m52.2 14.7-2.9-2.9 9.2-9.2 2.9 2.9zm-1.7-3 1.6 1.6L60 5.5l-1.6-1.6z" class="st3"/><path d="m29.8 21 8.7-8.7c3.4-3.4 8.9-3.4 12.3 0l.8.8c3.4 3.4 3.4 8.9 0 12.3l-8.7 8.7z" class="st2"/><path d="M42.9 34.7 29.2 21l8.6-8.6c3.8-3.8 9.9-3.8 13.7 0s3.8 9.9 0 13.7zM30.5 21l12.4 12.4 8-8c3.4-3.4 3.4-9 0-12.4s-9-3.4-12.4 0z" class="st3"/></svg>