<svg xmlns="http://www.w3.org/2000/svg" xml:space="preserve" id="图层_1" x="0" y="0" version="1.1" viewBox="0 0 64 64"><style>.st3{fill:#cae7ff}</style><path d="M49.6 39.6H15.5c-1.3 0-2.4-1.1-2.4-2.4v-8.6c0-1.3 1.1-2.4 2.4-2.4h34.1c1.3 0 2.4 1.1 2.4 2.4v8.5c0 1.4-1.1 2.5-2.4 2.5" style="fill:#7fbfff"/><path d="M49.5 40h-34c-1.6 0-3-1.3-3-3v-8.3c0-1.6 1.3-3 3-3h34c1.6 0 3 1.3 3 3V37c0 1.7-1.4 3-3 3m-34-13.4c-1.1 0-2.1.9-2.1 2.1V37c0 1.1.9 2.1 2.1 2.1h34c1.1 0 2.1-.9 2.1-2.1v-8.3c0-1.1-.9-2.1-2.1-2.1z" class="st3"/><path d="M49.6 54.9H15.5c-1.3 0-2.4-1.1-2.4-2.4V44c0-1.3 1.1-2.4 2.4-2.4h34.1c1.3 0 2.4 1.1 2.4 2.4v8.5c0 1.3-1.1 2.4-2.4 2.4" style="fill:#006bc2"/><path d="M49.5 55.4h-34c-1.6 0-3-1.3-3-3v-8.3c0-1.6 1.3-3 3-3h34c1.6 0 3 1.3 3 3v8.3c0 1.6-1.4 3-3 3M15.5 42c-1.1 0-2.1.9-2.1 2.1v8.3c0 1.1.9 2.1 2.1 2.1h34c1.1 0 2.1-.9 2.1-2.1v-8.3c0-1.1-.9-2.1-2.1-2.1z" class="st3"/><circle cx="32.6" cy="20.6" r="10.9" style="fill:#006bc2;stroke:#cae7ff;stroke-miterlimit:10"/><path d="M30.8 27.4v-5.1h-5.1v-3.5h5.1v-5.1h3.5v5.1h5.1v3.5h-5.1v5.1z" style="fill:#fff"/></svg>