<svg xmlns="http://www.w3.org/2000/svg" xml:space="preserve" id="图层_1" x="0" y="0" version="1.1" viewBox="0 0 64 64"><style>.st10{fill:#d3d3d3}.st11{fill:#606060}</style><path d="M15.4 25h34.1c1.3 0 2.4 1.1 2.4 2.4V36c0 1.3-1.1 2.4-2.4 2.4H15.4c-1.3 0-2.4-1.1-2.4-2.4v-8.5c0-1.4 1.1-2.5 2.4-2.5" style="fill:#aaa"/><path d="M49.5 24.6h-34c-1.6 0-3 1.3-3 3v8.3c0 1.7 1.4 3 3 3h34c1.7 0 3-1.4 3-3v-8.3c0-1.7-1.4-3-3-3M15.5 38c-1.2 0-2.1-1-2.1-2.1v-8.3c0-1.2 1-2.1 2.1-2.1h34c1.2 0 2.1 1 2.1 2.1v8.3c0 1.2-1 2.1-2.1 2.1z" class="st10"/><path d="M15.4 9.7h34.1c1.3 0 2.4 1.1 2.4 2.4v8.5c0 1.3-1.1 2.4-2.4 2.4H15.4c-1.3 0-2.4-1.1-2.4-2.4v-8.5c0-1.3 1.1-2.4 2.4-2.4" class="st11"/><path d="M49.5 9.2h-34c-1.6 0-3 1.4-3 3v8.3c0 1.7 1.4 3 3 3h34c1.7 0 3-1.4 3-3v-8.3c0-1.7-1.4-3-3-3m-34 13.4c-1.2 0-2.1-1-2.1-2.1v-8.3c0-1.2 1-2.1 2.1-2.1h34c1.2 0 2.1 1 2.1 2.1v8.3c0 1.2-1 2.1-2.1 2.1z" class="st10"/><circle cx="32.4" cy="44" r="10.9" class="st11"/><path d="M32.4 32.6C26.1 32.6 21 37.7 21 44s5.1 11.4 11.4 11.4S43.8 50.3 43.8 44s-5.1-11.4-11.4-11.4m0 21.8C26.7 54.4 22 49.7 22 44s4.7-10.4 10.4-10.4S42.8 38.3 42.8 44s-4.6 10.4-10.4 10.4" class="st10"/><path d="M34.2 37.2v5.1h5.1v3.5h-5.1v5.1h-3.5v-5.1h-5.1v-3.5h5.1v-5.1z" style="fill:#fff"/></svg>