<svg xmlns="http://www.w3.org/2000/svg" xml:space="preserve" id="图层_1" x="0" y="0" version="1.1" viewBox="0 0 64 64"><style>.st10{fill:#d3d3d3}.st11{fill:#606060}</style><path d="M49.6 39.6H15.5c-1.3 0-2.4-1.1-2.4-2.4v-8.6c0-1.3 1.1-2.4 2.4-2.4h34.1c1.3 0 2.4 1.1 2.4 2.4v8.5c0 1.4-1.1 2.5-2.4 2.5" style="fill:#aaa"/><path d="M49.5 25.7h-34c-1.7 0-3 1.4-3 3V37c0 1.7 1.4 3 3 3h34c1.6 0 3-1.3 3-3v-8.3c0-1.7-1.4-3-3-3m-34 13.4c-1.2 0-2.1-1-2.1-2.1v-8.3c0-1.2 1-2.1 2.1-2.1h34c1.2 0 2.1 1 2.1 2.1V37c0 1.2-1 2.1-2.1 2.1z" class="st10"/><path d="M49.6 54.9H15.5c-1.3 0-2.4-1.1-2.4-2.4V44c0-1.3 1.1-2.4 2.4-2.4h34.1c1.3 0 2.4 1.1 2.4 2.4v8.5c0 1.3-1.1 2.4-2.4 2.4" class="st11"/><path d="M49.5 41.1h-34c-1.7 0-3 1.4-3 3v8.3c0 1.7 1.4 3 3 3h34c1.6 0 3-1.4 3-3v-8.3c0-1.7-1.4-3-3-3m-34 13.4c-1.2 0-2.1-1-2.1-2.1v-8.3c0-1.2 1-2.1 2.1-2.1h34c1.2 0 2.1 1 2.1 2.1v8.3c0 1.2-1 2.1-2.1 2.1z" class="st10"/><circle cx="32.6" cy="20.6" r="10.9" class="st11"/><path d="M32.6 9.2c-6.3 0-11.4 5.1-11.4 11.4S26.3 32 32.6 32 44 26.9 44 20.6c-.1-6.3-5.2-11.4-11.4-11.4m0 21.8c-5.7 0-10.4-4.7-10.4-10.4s4.7-10.4 10.4-10.4S43 14.9 43 20.6C42.9 26.3 38.3 31 32.6 31" class="st10"/><path d="M30.8 27.4v-5.1h-5.1v-3.5h5.1v-5.1h3.5v5.1h5.1v3.5h-5.1v5.1z" style="fill:#fff"/></svg>