<svg xmlns="http://www.w3.org/2000/svg" xml:space="preserve" viewBox="0 0 64 64"><path d="M41.7 54.6H12.4V9.9h29.3" style="fill:#aaa"/><path d="M41.7 9.4H11.9v45.7h29.8v-1H12.9V10.4h28.8z" style="fill:#d3d3d3"/><path d="m53.8 30.9-3.5-13.1c0-.2-.4-.4-.6-.2L46.3 21c-5.3-5.1-13.8-4.9-18.8.8-4.4 5.2-3.8 13.2 1 18l8.1 8.1c.3.3.8.3 1.1 0l2.7-2.7c.3-.3.3-.8 0-1.1l-8.2-8.2c-2.8-2.8-3.3-7.3-.8-10.3 2.8-3.4 7.9-3.7 11-.7L39 28.3c-.1.2 0 .5.3.6l13.1 3.5c.9.1 1.6-.6 1.4-1.5z" style="fill:#606060;stroke:#d3d3d3;stroke-miterlimit:10"/></svg>