<svg xmlns="http://www.w3.org/2000/svg" xml:space="preserve" viewBox="0 0 64 64"><path d="M41.1 54.6H11.8V9.9h29.3" style="fill:#cae7ff"/><path d="M41.1 55.1H11.3V9.4h29.8v1H12.3v43.7h28.8z" style="fill:#006bc2"/><path d="m53.2 30.9-3.5-13.1c0-.2-.4-.4-.6-.2L45.7 21c-5.3-5.1-13.8-4.9-18.8.8-4.4 5.2-3.8 13.2 1 18l8.1 8.1c.3.3.8.3 1.1 0l2.7-2.7c.3-.3.3-.8 0-1.1l-8.2-8.2c-2.8-2.8-3.3-7.3-.8-10.3 2.8-3.4 7.9-3.7 11-.7l-3.4 3.4c-.1.2 0 .5.3.6l13.1 3.5c.8.1 1.6-.6 1.4-1.5z" style="fill:#006bc2;stroke:#cae7ff;stroke-miterlimit:10"/></svg>