<svg xmlns="http://www.w3.org/2000/svg" xml:space="preserve" id="图层_1" x="0" y="0" version="1.1" viewBox="0 0 64 64"><style>.st9{fill:#606060}.st10{fill:#d3d3d3}</style><path d="M36.8 11c-7.3-1.6-14.6.4-19.9 5.6-2.9 2.8-5 6.4-6 10.4l-.1.3H7.6c-.3 0-.4.2-.5.3 0 .1-.1.3 0 .6l6.9 12c.1.3.4.3.5.3s.3 0 .5-.3l6.9-12q.15-.45 0-.6c0-.1-.2-.3-.5-.3h-3.5l.3-.6c.8-2 2-3.7 3.5-5.1 2.8-2.7 6.4-4.1 10.3-4.1 4 0 7.8 1.6 10.6 4.5l5.2-4.8c-2.9-3.1-6.7-5.3-11-6.2" class="st9"/><path d="M36.9 10c-7.5-1.6-15.3.6-20.7 5.8-3 2.9-5.1 6.5-6.2 10.5H7.5c-.6 0-1 .2-1.3.7q-.45.75 0 1.5l6.9 12c.3.4.8.7 1.3.7.6 0 1-.2 1.3-.7l6.9-12q.45-.75 0-1.5c-.3-.4-.8-.7-1.3-.7h-2.1q1.05-2.4 3-4.2c2.6-2.5 6.1-3.9 9.7-3.9 3.8 0 7.4 1.6 10.1 4.4l.3-.3.3-.3c-2.8-2.9-6.6-4.5-10.6-4.5-3.9 0-7.5 1.4-10.3 4.1-1.5 1.4-2.7 3.1-3.5 5.1l-.3.6h3.5c.3 0 .5.2.5.3q.15.15 0 .6l-6.9 12c-.2.3-.4.3-.5.3s-.4 0-.5-.3l-6.9-12c-.1-.3 0-.5 0-.6.1-.1.2-.3.5-.3h3.2l.1-.3c1-4 3.1-7.6 6-10.4 5.3-5.2 12.6-7.2 19.9-5.6 4.3.9 8.1 3.1 11 6.2l.3-.3.4-.4c-3-3.2-7.1-5.6-11.6-6.5" class="st10"/><path d="M27.2 53c7.3 1.6 14.6-.4 19.9-5.6 2.9-2.8 5-6.4 6-10.4l.1-.3h3.2c.3 0 .4-.2.5-.3 0-.1.1-.3 0-.6l-6.9-12c-.1-.3-.4-.3-.5-.3s-.3 0-.5.3l-6.9 12q-.15.45 0 .6c0 .1.2.3.5.3h3.5l-.3.6c-.8 2-2 3.7-3.5 5.1-2.8 2.7-6.4 4.1-10.3 4.1-4.3 0-8.2-1.8-11.1-5l-5.2 4.7c3 3.4 7 5.9 11.5 6.8" class="st9"/><path d="m57.8 35.5-6.9-12c-.3-.4-.8-.7-1.3-.7-.6 0-1 .2-1.3.7l-6.9 12q-.45.75 0 1.5c.3.4.8.7 1.3.7h2.1q-1.05 2.4-3 4.2c-2.6 2.5-6.1 3.9-9.7 3.9-4 0-7.8-1.8-10.5-4.8 0 0 0-.1-.1-.1l-.3.3-.3.3c2.9 3.2 6.9 5 11.1 5 3.9 0 7.5-1.4 10.3-4.1 1.5-1.4 2.7-3.1 3.5-5.1l.3-.6h-3.5c-.3 0-.5-.2-.5-.3q-.15-.15 0-.6l6.9-12c.2-.3.4-.3.5-.3s.4 0 .5.3l6.9 12c.1.3 0 .5 0 .6-.1.1-.2.3-.5.3h-3.2l-.1.3c-1 4-3.1 7.6-6 10.4-5.3 5.2-12.6 7.2-19.9 5.6-4.5-.9-8.5-3.4-11.5-6.8l-.3.3-.4.4c3.1 3.6 7.3 6.1 12.1 7.2 7.5 1.6 15.3-.6 20.7-5.8 3-2.9 5.1-6.5 6.2-10.5h2.5c.6 0 1-.2 1.3-.7.3-.6.3-1.1 0-1.6" class="st10"/></svg>