<svg xmlns="http://www.w3.org/2000/svg" xml:space="preserve" id="图层_1" x="0" y="0" version="1.1" viewBox="0 0 64 64"><style>.st10{fill:#d3d3d3}</style><circle cx="32.5" cy="32.3" r="23.8" style="fill:#606060"/><path d="M32.5 56.5c-13.4 0-24.2-10.9-24.2-24.2 0-13.4 10.9-24.2 24.2-24.2 13.4 0 24.2 10.9 24.2 24.2 0 13.4-10.8 24.2-24.2 24.2m0-47.5C19.6 9 9.2 19.4 9.2 32.3s10.5 23.3 23.3 23.3c12.9 0 23.3-10.5 23.3-23.3C55.8 19.4 45.4 9 32.5 9" class="st10"/><path d="M18.8 29h27.3v6.6H18.8z" style="fill:#fff"/><path d="M46.7 36.1H18.3v-7.6h28.3v7.6zm-27.4-1h26.3v-5.6H19.3z" class="st10"/></svg>