<svg xmlns="http://www.w3.org/2000/svg" xml:space="preserve" id="图层_1" x="0" y="0" version="1.1" viewBox="0 0 64 64"><style>.st4{fill:#006bc2}</style><path d="M10.5 46h43v7.3h-43z" class="st4"/><path d="M10.5 10.7h43V18h-43z" style="fill:#7fbfff"/><path d="M46.1 30.4 33.2 12.1c-.6-.9-1.9-.9-2.5 0L17.9 30.4c-.7 1 0 2.4 1.2 2.4h7.3v17.9c0 1.3 1 2.3 2.3 2.3h6.5c1.3 0 2.3-1 2.3-2.3V32.8h7.3c1.3 0 2-1.4 1.3-2.4" class="st4"/><path d="M46.1 30.4 33.2 12.1c-.6-.9-1.9-.9-2.5 0L17.9 30.4c-.7 1 0 2.4 1.2 2.4h7.3v17.9c0 1.3 1 2.3 2.3 2.3h6.5c1.3 0 2.3-1 2.3-2.3V32.8h7.3c1.3 0 2-1.4 1.3-2.4z" style="fill:none;stroke:#cae7ff;stroke-width:.9;stroke-miterlimit:10"/></svg>