<svg xmlns="http://www.w3.org/2000/svg" xml:space="preserve" id="图层_1" x="0" y="0" version="1.1" viewBox="0 0 64 64"><style>.st4{fill:#006bc2}</style><path d="M10.5 10.7h43V18h-43z" class="st4"/><path d="M10.5 46h43v7.3h-43z" style="fill:#7fbfff"/><path d="m17.9 33.6 12.8 18.3c.6.9 1.9.9 2.5 0L46 33.6c.7-1 0-2.4-1.2-2.4h-7.3V13.3c0-1.3-1-2.3-2.3-2.3h-6.5c-1.3 0-2.3 1-2.3 2.3v17.9h-7.3c-1.2 0-1.9 1.4-1.2 2.4" class="st4"/><path d="m17.9 33.6 12.8 18.3c.6.9 1.9.9 2.5 0L46 33.6c.7-1 0-2.4-1.2-2.4h-7.3V13.3c0-1.3-1-2.3-2.3-2.3h-6.5c-1.3 0-2.3 1-2.3 2.3v17.9h-7.3c-1.2 0-1.9 1.4-1.2 2.4z" style="fill:none;stroke:#cae7ff;stroke-width:.9;stroke-miterlimit:10"/></svg>