<svg xmlns="http://www.w3.org/2000/svg" xml:space="preserve" id="图层_1" x="0" y="0" version="1.1" viewBox="0 0 64 64"><style>.st9{fill:#606060}</style><path d="M10.5 46h43v7.3h-43z" class="st9"/><path d="M10.5 10.7h43V18h-43z" style="fill:#aaa"/><path d="M46.1 30.4 33.2 12c-.6-.9-1.9-.9-2.5 0L17.9 30.4c-.7 1 0 2.4 1.2 2.4h7.3v17.9c0 1.3 1 2.3 2.3 2.3h6.5c1.3 0 2.3-1 2.3-2.3V32.8h7.3c1.3 0 2-1.4 1.3-2.4" class="st9"/><path d="M35.2 53.3h-6.5c-1.5 0-2.7-1.2-2.7-2.7V33.2h-6.9c-.7 0-1.4-.4-1.7-1.1-.3-.6-.3-1.4.1-2l12.8-18.3c.4-.5 1-.8 1.6-.8s1.2.3 1.6.8l12.8 18.3c.4.6.5 1.4.1 2-.3.6-1 1.1-1.7 1.1H38v17.4c0 1.5-1.3 2.7-2.8 2.7M32 11.9c-.3 0-.7.2-.9.4L18.3 30.6c-.2.3-.3.7-.1 1.1s.5.6.9.6H27v18.3c0 1 .8 1.8 1.8 1.8h6.5c1 0 1.8-.8 1.8-1.8V32.3h7.8c.4 0 .8-.2.9-.6s.2-.8-.1-1.1L32.9 12.3c-.2-.3-.6-.4-.9-.4" style="fill:#d3d3d3"/></svg>