<svg xmlns="http://www.w3.org/2000/svg" xml:space="preserve" id="图层_1" x="0" y="0" version="1.1" viewBox="0 0 64 64"><style>.st9{fill:#606060}</style><path d="M10.5 10.7h43V18h-43z" class="st9"/><path d="M10.5 46h43v7.3h-43z" style="fill:#aaa"/><path d="M17.9 33.6 30.8 52c.6.9 1.9.9 2.5 0l12.8-18.3c.7-1 0-2.4-1.2-2.4h-7.3V13.4c0-1.3-1-2.3-2.3-2.3h-6.5c-1.3 0-2.3 1-2.3 2.3v17.9h-7.3c-1.3-.1-2 1.3-1.3 2.3" class="st9"/><path d="M32 53c-.6 0-1.2-.3-1.6-.8L17.5 33.9c-.4-.6-.5-1.4-.1-2 .3-.6 1-1.1 1.7-1.1H26V13.4c0-1.5 1.2-2.7 2.7-2.7h6.5c1.5 0 2.7 1.2 2.7 2.7v17.4h6.9c.7 0 1.4.4 1.7 1.1.3.6.3 1.4-.1 2L33.6 52.2c-.4.5-1 .8-1.6.8M18.3 33.4l12.9 18.3c.4.6 1.3.6 1.7 0l12.9-18.3c.2-.3.3-.7.1-1.1q-.3-.6-.9-.6h-8V13.4c0-1-.8-1.8-1.8-1.8h-6.5c-1 0-1.8.8-1.8 1.8v18.3h-7.8c-.4 0-.8.2-.9.6-.2.3-.1.7.1 1.1" style="fill:#d3d3d3"/></svg>