<svg xmlns="http://www.w3.org/2000/svg" xml:space="preserve" id="图层_1" x="0" y="0" version="1.1" viewBox="0 0 64 64"><style>.st3{fill:#d3d3d3}.st4{fill:#606060}</style><path d="M45.2 12.8h-7.4L35 6.5H23.9l-2.8 6.4h-7.4c-1.4 0-2.4 1.1-2.4 2.4v35.8c0 1.4 1.1 2.4 2.4 2.4h31.6c1.4 0 2.4-1.1 2.4-2.4V15.3c-.1-1.4-1.1-2.5-2.5-2.5M27.1 9.2h4.8c.6 0 1 .4 1 .9s-.5.9-1 .9h-4.8c-.6 0-1-.4-1-.9s.3-.9 1-.9" style="fill:#aaa"/><path d="M45.2 54H13.7c-1.6 0-2.9-1.3-2.9-2.9V15.3c0-1.6 1.3-2.9 2.9-2.9h7.1L23.6 6h11.8l2.8 6.4h7.1c1.6 0 2.9 1.3 2.9 2.9v35.8c-.1 1.6-1.3 2.9-3 2.9M13.7 13.3c-1.1 0-2 .9-2 2v35.8c0 1.1.9 2 2 2h31.6c1.1 0 2-.9 2-2V15.3c0-1.1-.9-2-2-2h-7.7l-2.8-6.4H24.1l-2.8 6.4zm18.2-1.9h-4.8c-.8 0-1.5-.6-1.5-1.3s.7-1.3 1.5-1.3h4.8c.8 0 1.5.6 1.5 1.3-.2.7-.8 1.3-1.5 1.3m-4.8-1.8c-.3 0-.6.2-.6.4s.3.4.6.4h4.8c.3 0 .6-.2.6-.4s-.3-.4-.6-.4z" class="st3"/><path d="M52.8 30.5V55c0 1.4-1.1 2.5-2.5 2.5H23.6c-1.4 0-2.5-1.1-2.5-2.5V22.1c0-1.4 1.1-2.5 2.5-2.5h18.3" class="st4"/><path d="M50.1 58H23.4c-1.6 0-3-1.3-3-3V22.1c0-1.6 1.3-3 3-3h18.3v.9H23.4c-1.2 0-2.1.9-2.1 2.1V55c0 1.2.9 2.1 2.1 2.1h26.7c1.2 0 2.1-.9 2.1-2.1V30.5h.9V55c0 1.6-1.2 3-3 3" class="st3"/><path d="M42.1 30.1v-10l10 10z" class="st4"/><path d="m42.6 21.2 8.5 8.5h-8.5zm-1-2.2v11.5h11.6z" class="st3"/><path d="M28.9 34.1h16.8v1.8H28.9zm0 5h16.8v1.8H28.9zm0 5h16.8v1.8H28.9zm0 5h8.4v1.8h-8.4z" style="fill:#fff"/></svg>