<svg xmlns="http://www.w3.org/2000/svg" xml:space="preserve" id="图层_1" x="0" y="0" version="1.1" viewBox="0 0 64 64"><style>.st3{fill:#cae7ff}.st4{fill:#006bc2}</style><path d="M19.2 46.9c-1.1 0-2-.9-2-2V19.1c0-1.1.9-2 2-2h6.5c1.1 0 2 .9 2 2v25.8c0 1.1-.9 2-2 2z" class="st4"/><path d="M25.7 17.6c.8 0 1.5.7 1.5 1.5v25.8c0 .8-.7 1.5-1.5 1.5h-6.5c-.8 0-1.5-.7-1.5-1.5V19.1c0-.8.7-1.5 1.5-1.5zm0-.9h-6.5c-1.3 0-2.4 1.1-2.4 2.4v25.8c0 1.3 1.1 2.4 2.4 2.4h6.5c1.3 0 2.4-1.1 2.4-2.4V19.1c0-1.3-1.1-2.4-2.4-2.4" class="st3"/><path d="M38.3 46.9c-1.1 0-2-.9-2-2V19.1c0-1.1.9-2 2-2h6.5c1.1 0 2 .9 2 2v25.8c0 1.1-.9 2-2 2z" class="st4"/><path d="M44.8 17.6c.8 0 1.5.7 1.5 1.5v25.8c0 .8-.7 1.5-1.5 1.5h-6.5c-.8 0-1.5-.7-1.5-1.5V19.1c0-.8.7-1.5 1.5-1.5zm0-.9h-6.5c-1.3 0-2.4 1.1-2.4 2.4v25.8c0 1.3 1.1 2.4 2.4 2.4h6.5c1.3 0 2.4-1.1 2.4-2.4V19.1c0-1.3-1.1-2.4-2.4-2.4" class="st3"/></svg>