<svg xmlns="http://www.w3.org/2000/svg" xml:space="preserve" id="图层_1" x="0" y="0" version="1.1" viewBox="0 0 64 64"><style>.st2{fill:#7fbfff}.st3{fill:#cae7ff}.st4{fill:#006bc2}</style><path d="M10.3 14.1h11.2v5.8H10.3z" class="st4"/><path d="M21.9 20.4H9.8v-6.7h12.1zm-11.2-.9H21v-4.9H10.7z" class="st3"/><path d="M23.8 14.1H35v5.8H23.8z" class="st2"/><path d="M35.4 20.4H23.3v-6.7h12.1zm-11.2-.9h10.3v-4.9H24.2z" class="st3"/><path d="M37.3 14.1h11.2v5.8H37.3z" class="st4"/><path d="M48.9 20.4H36.8v-6.7h12.1zm-11.1-.9h10.3v-4.9H37.8z" class="st3"/><path d="M10.3 22.7h11.2v5.8H10.3z" class="st2"/><path d="M21.9 28.9H9.8v-6.7h12.1zM10.7 28H21v-4.9H10.7z" class="st3"/><path d="M23.8 22.7H35v5.8H23.8z" class="st4"/><path d="M35.4 28.9H23.3v-6.7h12.1zM24.2 28h10.3v-4.9H24.2z" class="st3"/><path d="M37.3 22.7h11.2v5.8H37.3z" class="st2"/><path d="M48.9 28.9H36.8v-6.7h12.1zM37.8 28h10.3v-4.9H37.8z" class="st3"/><path d="M10.3 31.2h11.2V37H10.3z" class="st4"/><path d="M21.9 37.4H9.8v-6.7h12.1zm-11.2-.9H21v-4.9H10.7z" class="st3"/><path d="M23.8 31.2H35V37H23.8z" class="st2"/><path d="M35.4 37.4H23.3v-6.7h12.1zm-11.2-.9h10.3v-4.9H24.2z" class="st3"/><path d="M10.3 39.7h11.2v5.8H10.3z" class="st2"/><path d="M21.9 46H9.8v-6.7h12.1zm-11.2-.9H21v-4.9H10.7z" class="st3"/><path d="M23.8 39.7H35v5.8H23.8z" class="st4"/><path d="M35.4 46H23.3v-6.7h12.1zm-11.2-.9h10.3v-4.9H24.2z" class="st3"/><path d="M54.7 41.2v-5H52q-.3-1.05-.9-2.1l1.9-1.9-3.6-3.6-1.9 1.9c-.6-.4-1.3-.6-2.1-.9v-2.7h-5v2.7q-1.05.3-2.1.9l-1.9-1.9-3.4 3.7 1.9 1.9c-.4.6-.6 1.3-.9 2.1h-2.7v5H34q.3 1.05.9 2.1L33 45.2l3.6 3.6 1.9-1.9c.6.4 1.3.6 2.1.9v2.7h5v-2.7q1.05-.3 2.1-.9l1.9 1.9 3.6-3.6-1.9-1.9c.4-.6.6-1.3.9-2.1zM43 43.6c-2.7 0-4.9-2.2-4.9-4.9s2.2-4.9 4.9-4.9 4.9 2.2 4.9 4.9-2.2 4.9-4.9 4.9" class="st4"/><path d="M46 50.9h-6v-2.8l-1.5-.6-2 2-4.3-4.3 2-2-.6-1.5h-2.8v-6h2.8l.6-1.5-2-2 4.3-4.3 2 2 1.5-.6v-2.8h6v2.8l1.5.6 2-2 4.3 4.3-2 2 .6 1.5h2.8v6h-2.8l-.6 1.5 2 2-4.3 4.3-2-2-1.5.6zm-5-1h4v-2.5l.4-.1c.7-.2 1.3-.5 2-.8l.3-.2 1.8 1.8 2.9-2.9-1.8-1.8.2-.3c.3-.6.6-1.3.8-2l.1-.4h2.5v-4h-2.5l-.1-.4c-.2-.7-.5-1.3-.8-2l-.2-.3 1.8-1.8-2.9-2.9-1.8 1.8-.3-.1c-.6-.3-1.3-.6-2-.8l-.4-.1v-2.5h-4v2.5l-.4.1c-.7.2-1.3.5-2 .8l-.3.2-1.8-1.8-2.9 2.9 1.8 1.8-.2.3c-.3.6-.6 1.3-.8 2l-.1.4h-2.5v4h2.5l.1.4c.2.7.5 1.3.8 2l.2.3-1.8 1.8 2.9 2.9 1.8-1.8.3.2c.6.3 1.3.6 2 .8l.4.1zm2-5.8c-3 0-5.4-2.4-5.4-5.4s2.4-5.4 5.4-5.4 5.4 2.4 5.4 5.4-2.4 5.4-5.4 5.4" class="st3"/><circle cx="43" cy="38.7" r="4.4" style="fill:#fff"/></svg>