<svg xmlns="http://www.w3.org/2000/svg" xml:space="preserve" id="图层_1" x="0" y="0" version="1.1" viewBox="0 0 64 64"><style>.st9{fill:#606060}.st10{fill:#d3d3d3}.st11{fill:#aaa}</style><path d="M10.3 14.1h11.2v5.8H10.3z" class="st9"/><path d="M21.9 13.7H9.8v6.7h12.1zm-11.2 5.8v-4.9H21v4.9z" class="st10"/><path d="M23.8 14.1H35v5.8H23.8z" class="st11"/><path d="M35.4 13.7H23.3v6.7h12.1zm-11.2 5.8v-4.9h10.3v4.9z" class="st10"/><path d="M37.3 14.1h11.2v5.8H37.3z" class="st9"/><path d="M48.9 13.7H36.8v6.7h12.1zm-11.1 5.8v-4.9h10.3v4.9z" class="st10"/><path d="M10.3 22.7h11.2v5.8H10.3z" class="st11"/><path d="M21.9 22.2H9.8v6.7h12.1zM10.7 28v-4.9H21V28z" class="st10"/><path d="M23.8 22.7H35v5.8H23.8z" class="st9"/><path d="M35.4 22.2H23.3v6.7h12.1zM24.2 28v-4.9h10.3V28z" class="st10"/><path d="M37.3 22.7h11.2v5.8H37.3z" class="st11"/><path d="M48.9 22.2H36.8v6.7h12.1zM37.8 28v-4.9h10.3V28z" class="st10"/><path d="M10.3 31.2h11.2V37H10.3z" class="st9"/><path d="M21.9 30.7H9.8v6.7h12.1zm-11.2 5.8v-4.9H21v4.9z" class="st10"/><path d="M23.8 31.2H35V37H23.8z" class="st11"/><path d="M35.4 30.7H23.3v6.7h12.1zm-11.2 5.8v-4.9h10.3v4.9z" class="st10"/><path d="M10.3 39.7h11.2v5.8H10.3z" class="st11"/><path d="M21.9 39.3H9.8V46h12.1zm-11.2 5.8v-4.9H21v4.9z" class="st10"/><path d="M23.8 39.7H35v5.8H23.8z" class="st9"/><path d="M35.4 39.3H23.3V46h12.1zm-11.2 5.8v-4.9h10.3v4.9z" class="st10"/><path d="M54.7 41.2v-5H52q-.3-1.05-.9-2.1l1.9-1.9-3.6-3.6-1.9 1.9c-.6-.4-1.3-.6-2.1-.9v-2.7h-5v2.7q-1.05.3-2.1.9l-1.9-1.9-3.4 3.7 1.9 1.9c-.4.6-.6 1.3-.9 2.1h-2.7v5H34q.3 1.05.9 2.1L33 45.2l3.6 3.6 1.9-1.9c.6.4 1.3.6 2.1.9v2.7h5v-2.7q1.05-.3 2.1-.9l1.9 1.9 3.6-3.6-1.9-1.9c.4-.6.6-1.3.9-2.1zM43 43.6c-2.7 0-4.9-2.2-4.9-4.9s2.2-4.9 4.9-4.9 4.9 2.2 4.9 4.9-2.2 4.9-4.9 4.9" class="st9"/><path d="M43 35.8c1.6 0 2.9 1.3 2.9 2.9s-1.3 2.9-2.9 2.9-2.9-1.3-2.9-2.9 1.3-2.9 2.9-2.9m3-9.2h-6v2.8l-1.5.6-2-2-4.3 4.3 2 2-.6 1.5h-2.8v6h2.8l.6 1.5-2 2 4.3 4.3 2-2 1.5.6V51h6v-2.8l1.5-.6 2 2 4.3-4.3-2-2 .6-1.5h2.8v-6h-2.8l-.6-1.5 2-2-4.3-4.3-2 2-1.5-.6zm-7.6 4.6.3-.2c.6-.3 1.3-.6 2-.8l.4-.1v-2.5h4v2.5l.4.1c.7.2 1.3.5 2 .8l.3.2 1.8-1.8 2.9 2.9-1.8 1.8.2.3c.3.6.6 1.3.8 2l.1.4h2.5v4h-2.5l-.1.4c-.2.7-.5 1.3-.8 2l-.2.3 1.8 1.8-3 2.7-1.8-1.8-.3.2c-.6.3-1.3.6-2 .8l-.4.1v2.5h-4v-2.5l-.4-.1c-.7-.2-1.3-.5-2-.8l-.3-.2-1.7 1.8-2.9-2.9 1.8-1.8-.2-.3c-.3-.6-.6-1.3-.8-2l-.1-.4h-2.5v-4h2.5l.1-.4c.2-.7.5-1.3.8-2l.2-.3-1.8-1.8 2.9-2.9zm4.6 2.1c-3 0-5.4 2.4-5.4 5.4s2.4 5.4 5.4 5.4 5.4-2.4 5.4-5.4-2.4-5.4-5.4-5.4" class="st10"/><circle cx="43" cy="38.7" r="4.4" style="fill:#fff"/></svg>