<svg xmlns="http://www.w3.org/2000/svg" xml:space="preserve" viewBox="0 0 64 64"><path d="M17.4 50.9c-1 0-2.1-.8-2.1-2.1V15.2c0-1.3 1.1-2.1 2.1-2.1.4 0 .7.1 1 .3l29.1 16.8c.6.4 1 1 1 1.8s-.4 1.4-1 1.8l-29 16.8c-.3.2-.7.3-1.1.3" style="fill:#006bc2"/><path d="M17.4 13.6c.3 0 .6.1.8.2l29.1 16.8c.5.3.8.8.8 1.4s-.3 1.1-.8 1.4l-29 16.8c-.3.1-.5.2-.8.2-.8 0-1.6-.6-1.6-1.6V15.2c-.1-1 .8-1.6 1.5-1.6m0-.9c-1.3 0-2.5 1.1-2.5 2.5v33.6c0 1.5 1.2 2.5 2.5 2.5.4 0 .9-.1 1.3-.3l29.1-16.8c1.7-1 1.7-3.4 0-4.4L18.7 13c-.4-.2-.8-.3-1.3-.3" style="fill:#cae7ff"/></svg>